<?xml version="1.0" encoding="UTF-8"?>
<svg width="306px" height="180px" viewBox="0 0 306 180" version="1.1" xmlns="http://www.w3.org/2000/svg" xmlns:xlink="http://www.w3.org/1999/xlink">
    <!-- Generator: Sketch 61.2 (89653) - https://sketch.com -->
    <title>illustration / 503</title>
    <desc>Created with Sketch.</desc>
    <g id="Tracking" stroke="none" stroke-width="1" fill="none" fill-rule="evenodd">
        <g id="Web-503_server-unavailable" transform="translate(-567.000000, -128.000000)">
            <g id="illustration-/-503" transform="translate(560.000000, 128.000000)">
                <g id="ERROR-TOP-L" transform="translate(132.000000, 0.000000)" fill="#FB374C">
                    <path d="M5,17.3673439 L5,13.5340744 C5,12.6869219 5.672,12 6.50075,12 C7.3295,12 8,12.6869219 8,13.5340744 L8,17.3673439 C8,18.2137298 7.3295,18.899885 6.50075,18.899885 C5.672,18.899885 5,18.2137298 5,17.3673439 M5,30.40046 L5,26.5671905 C5,25.720038 5.672,25.0331161 6.50075,25.0331161 C7.3295,25.0331161 8,25.720038 8,26.5671905 L8,30.40046 C8,31.2468459 7.3295,31.9330011 6.50075,31.9330011 C5.672,31.9330011 5,31.2468459 5,30.40046 M5,43.4335761 L5,39.6003067 C5,38.7531541 5.672,38.0662322 6.50075,38.0662322 C7.3295,38.0662322 8,38.7531541 8,39.6003067 L8,43.4335761 C8,44.279962 7.3295,44.9661172 6.50075,44.9661172 C5.672,44.9661172 5,44.279962 5,43.4335761 M5,56.4666922 L5,52.6326561 C5,51.7862702 5.672,51.100115 6.50075,51.100115 C7.3295,51.100115 8,51.7862702 8,52.6326561 L8,56.4666922 C8,57.3130781 7.3295,58 6.50075,58 C5.672,58 5,57.3130781 5,56.4666922" id="Fill-1"></path>
                    <path d="M9.43904497,11.5612569 L0.438763711,2.56064749 C-0.14625457,1.97415665 -0.14625457,1.02542148 0.438763711,0.438180653 C1.02528204,-0.146060218 1.97406169,-0.146060218 2.56058002,0.438180653 L11.5601113,9.43879002 C12.1466296,10.0252809 12.1466296,10.974766 11.5601113,11.5612569 C11.2676021,11.8537523 10.8835901,12 10.4995781,12 C10.1155661,12 9.73155411,11.8537523 9.43904497,11.5612569" id="Fill-7"></path>
                    <path d="M0.438763711,11.5612569 C-0.14625457,10.974766 -0.14625457,10.0252809 0.438763711,9.43879002 L9.43904497,0.438180653 C10.0248133,-0.146060218 10.975093,-0.146060218 11.5601113,0.438180653 C12.1466296,1.02542148 12.1466296,1.97415665 11.5601113,2.56064749 L2.56133004,11.5612569 C2.26807088,11.8537523 1.88405888,12 1.50004688,12 C1.11603488,12 0.732022876,11.8537523 0.438763711,11.5612569" id="Fill-9"></path>
                </g>
                <g id="ERROR-TOP-R" transform="translate(170.000000, 14.000000)" fill="#FB374C">
                    <path d="M5,16.4429136 L5,14.5300988 C5,13.6850617 5.67141785,13 6.50112528,13 C7.32858215,13 8,13.6850617 8,14.5300988 L8,16.4429136 C8,17.2894815 7.32858215,17.9745432 6.50112528,17.9745432 C5.67141785,17.9745432 5,17.2894815 5,16.4429136 M5,29.4560247 L5,25.6288642 C5,24.7830617 5.67141785,24.0972346 6.50112528,24.0972346 C7.32858215,24.0972346 8,24.7830617 8,25.6288642 L8,29.4560247 C8,30.3010617 7.32858215,30.9861235 6.50112528,30.9861235 C5.67141785,30.9861235 5,30.3010617 5,29.4560247 M5,42.4683704 L5,38.6412099 C5,37.794642 5.67141785,37.1095802 6.50112528,37.1095802 C7.32858215,37.1095802 8,37.794642 8,38.6412099 L8,42.4683704 C8,43.3134074 7.32858215,44 6.50112528,44 C5.67141785,44 5,43.3134074 5,42.4683704" id="Fill-5"></path>
                    <path d="M9.43948746,11.5605137 L0.43878428,2.56079498 C-0.146261427,1.97581326 -0.146261427,1.02634293 0.43878428,0.439861254 C1.02382999,-0.146620418 1.97490429,-0.146620418 2.55995,0.439861254 L11.5606532,9.43958001 C12.1464489,10.0260617 12.1464489,10.975532 11.5606532,11.5605137 C11.2681303,11.8537546 10.8841003,12 10.5000703,12 C10.1160403,12 9.73201031,11.8537546 9.43948746,11.5605137" id="Fill-15"></path>
                    <path d="M0.43878428,11.5605137 C-0.146261427,10.975532 -0.146261427,10.0260617 0.43878428,9.43958001 L9.43948746,0.439861254 C10.0245332,-0.146620418 10.9756075,-0.146620418 11.5606532,0.439861254 C12.1464489,1.02634293 12.1464489,1.97581326 11.5606532,2.56079498 L2.55995,11.5605137 C2.26742714,11.8537546 1.88339714,12 1.49936714,12 C1.11533714,12 0.731307133,11.8537546 0.43878428,11.5605137" id="Fill-17"></path>
                </g>
                <g id="ERROR-L-2" transform="translate(7.000000, 121.000000)" fill="#FB374C">
                    <path d="M10.3134912,3 C9.44712451,3 8.74604118,2.328 8.74604118,1.49925 C8.74604118,0.6705 9.44712451,0 10.3134912,0 L14.2293745,0 C15.0949578,0 15.7968245,0.6705 15.7968245,1.49925 C15.7968245,2.328 15.0949578,3 14.2293745,3 L10.3134912,3 Z M23.6293745,3 C22.7645745,3 22.0634912,2.328 22.0634912,1.49925 C22.0634912,0.6705 22.7645745,0 23.6293745,0 L27.5460412,0 C28.4116245,0 29.1134912,0.6705 29.1134912,1.49925 C29.1134912,2.328 28.4116245,3 27.5460412,3 L23.6293745,3 Z M36.9460412,3 C36.0812412,3 35.3801578,2.328 35.3801578,1.49925 C35.3801578,0.6705 36.0812412,0 36.9460412,0 L40.8634912,0 C41.7275078,0 42.4285912,0.6705 42.4285912,1.49925 C42.4285912,2.328 41.7275078,3 40.8634912,3 L36.9460412,3 Z M50.2634912,3 C49.3971245,3 48.6952578,2.328 48.6952578,1.49925 C48.6952578,0.6705 49.3971245,0 50.2634912,0 L54.1801578,0 C55.0449578,0 55.7460412,0.6705 55.7460412,1.49925 C55.7460412,2.328 55.0449578,3 54.1801578,3 L50.2634912,3 Z" id="Fill-23"></path>
                    <path d="M4.74604118,6.37132558 L4.74604118,2.53488372 C4.74604118,1.68609302 5.41804118,1 6.24604118,1 C7.07479118,1 7.74604118,1.68609302 7.74604118,2.53488372 L7.74604118,6.37132558 C7.74604118,7.21934884 7.07479118,7.90697674 6.24604118,7.90697674 C5.41804118,7.90697674 4.74604118,7.21934884 4.74604118,6.37132558 M4.74604118,19.4186047 L4.74604118,15.5813953 C4.74604118,14.7326047 5.41804118,14.0465116 6.24604118,14.0465116 C7.07479118,14.0465116 7.74604118,14.7326047 7.74604118,15.5813953 L7.74604118,19.4186047 C7.74604118,20.2658605 7.07479118,20.9534884 6.24604118,20.9534884 C5.41804118,20.9534884 4.74604118,20.2658605 4.74604118,19.4186047 M4.74604118,32.4651163 L4.74604118,28.6271395 C4.74604118,27.7791163 5.41804118,27.0937907 6.24604118,27.0937907 C7.07479118,27.0937907 7.74604118,27.7791163 7.74604118,28.6271395 L7.74604118,32.4651163 C7.74604118,33.3123721 7.07479118,34 6.24604118,34 C5.41804118,34 4.74604118,33.3123721 4.74604118,32.4651163" id="Fill-27"></path>
                    <path d="M9.62458824,49.560575 L0.447352941,40.559825 C-0.149117647,39.974825 -0.149117647,39.023825 0.447352941,38.438825 C1.04535294,37.853825 2.01347059,37.853825 2.60994118,38.438825 L11.7871765,47.438075 C12.3836471,48.024575 12.3836471,48.974075 11.7871765,49.560575 C11.4889412,49.853825 11.0974118,50.000075 10.7058824,50.000075 C10.3143529,50.000075 9.92282353,49.853825 9.62458824,49.560575" id="Fill-39"></path>
                    <path d="M0.447352941,49.560575 C-0.149117647,48.974075 -0.149117647,48.024575 0.447352941,47.438075 L9.62458824,38.438825 C10.2210588,37.853825 11.1907059,37.853825 11.7871765,38.438825 C12.3836471,39.023825 12.3836471,39.974825 11.7871765,40.559825 L2.60994118,49.560575 C2.31170588,49.853825 1.92094118,50.000075 1.52941176,50.000075 C1.13788235,50.000075 0.746352941,49.853825 0.447352941,49.560575" id="Fill-42"></path>
                </g>
                <g id="ERROR-L-1" transform="translate(28.000000, 56.000000)" fill="#FB374C">
                    <path d="M6.54332896,53 C5.69141137,53 5,52.3293323 5,51.5003751 C5,50.672168 5.69141137,50 6.54332896,50 L7.22007871,50 C8.07276796,50 8.76417933,50.672168 8.76417933,51.5003751 C8.76417933,52.3293323 8.07276796,53 7.22007871,53 L6.54332896,53 Z M16.4800525,53 C15.6273632,53 14.9374952,52.3293323 14.9374952,51.5003751 C14.9374952,50.672168 15.6273632,50 16.4800525,50 L20.3391465,50 C21.1918358,50 21.8809322,50.672168 21.8809322,51.5003751 C21.8809322,52.3293323 21.1918358,53 20.3391465,53 L16.4800525,53 Z M29.5983486,53 C28.7456594,53 28.0550197,52.3293323 28.0550197,51.5003751 C28.0550197,50.672168 28.7456594,50 29.5983486,50 L33.4574427,50 C34.3085886,50 35,50.672168 35,51.5003751 C35,52.3293323 34.3085886,53 33.4574427,53 L29.5983486,53 Z" id="Fill-19"></path>
                    <path d="M4,17.372093 L4,13.5356512 C4,12.6876279 4.67183204,12 5.49962509,12 C6.32816796,12 7,12.6876279 7,13.5356512 L7,17.372093 C7,18.2201163 6.32816796,18.9077442 5.49962509,18.9077442 C4.67183204,18.9077442 4,18.2201163 4,17.372093 M4,30.4193721 L4,26.5821628 C4,25.7333721 4.67183204,25.0472791 5.49962509,25.0472791 C6.32816796,25.0472791 7,25.7333721 7,26.5821628 L7,30.4193721 C7,31.2666279 6.32816796,31.9542558 5.49962509,31.9542558 C4.67183204,31.9542558 4,31.2666279 4,30.4193721 M4,43.4658837 L4,39.627907 C4,38.7798837 4.67183204,38.0937907 5.49962509,38.0937907 C6.32816796,38.0937907 7,38.7798837 7,39.627907 L7,43.4658837 C7,44.313907 6.32816796,45 5.49962509,45 C4.67183204,45 4,44.313907 4,43.4658837" id="Fill-25"></path>
                    <path d="M9.43904497,11.5619863 L0.438763711,2.56095503 C-0.14625457,1.9744367 -0.14625457,1.02490703 0.438763711,0.439888747 C1.02528204,-0.146629582 1.97481171,-0.146629582 2.56133004,0.439888747 L11.5601113,9.43866996 C12.1466296,10.0259383 12.1466296,10.975468 11.5601113,11.5619863 C11.2676021,11.8544955 10.8843401,12 10.5003281,12 C10.1163161,12 9.73230413,11.8544955 9.43904497,11.5619863" id="Fill-35"></path>
                    <path d="M0.438736289,11.5619863 C-0.14624543,10.975468 -0.14624543,10.0259383 0.438736289,9.43866996 L9.43845505,0.439888747 C10.0256867,-0.146629582 10.975157,-0.146629582 11.5601387,0.439888747 C12.1466204,1.02490703 12.1466204,1.9744367 11.5601387,2.56095503 L2.56116996,11.5619863 C2.26792913,11.8544955 1.88394113,12 1.49995313,12 C1.11596513,12 0.731977126,11.8544955 0.438736289,11.5619863" id="Fill-37"></path>
                </g>
                <g id="Error-R-2" transform="translate(256.000000, 128.000000)" fill="#FB374C">
                    <path d="M1.56745,3 C0.701083333,3 3.55271368e-15,2.328 3.55271368e-15,1.49925 C3.55271368e-15,0.67125 0.701083333,0 1.56745,0 L5.48411667,0 C6.34891667,0 7.04921667,0.67125 7.04921667,1.49925 C7.04921667,2.328 6.34891667,3 5.48411667,3 L1.56745,3 Z M14.8841167,3 C14.0169667,3 13.3166667,2.328 13.3166667,1.49925 C13.3166667,0.67125 14.0169667,0 14.8841167,0 L18.8,0 C19.6655833,0 20.3658833,0.67125 20.3658833,1.49925 C20.3658833,2.328 19.6655833,3 18.8,3 L14.8841167,3 Z M28.2,3 C27.3336333,3 26.63255,2.328 26.63255,1.49925 C26.63255,0.67125 27.3336333,0 28.2,0 L32.1166667,0 C32.98225,0 33.68255,0.67125 33.68255,1.49925 C33.68255,2.328 32.98225,3 32.1166667,3 L28.2,3 Z M41.5166667,3 C40.6503,3 39.9492167,2.328 39.9492167,1.49925 C39.9492167,0.67125 40.6503,0 41.5166667,0 L45.43255,0 C46.2981333,0 47,0.67125 47,1.49925 C47,2.328 46.2981333,3 45.43255,3 L41.5166667,3 Z" id="Fill-49"></path>
                    <path d="M50,6.37157542 L50,2.53418764 C50,1.68612494 50.6705,1 51.49925,1 C52.328,1 53,1.68612494 53,2.53418764 L53,6.37157542 C53,7.21963812 52.328,7.90729801 51.49925,7.90729801 C50.6705,7.90729801 50,7.21963812 50,6.37157542 M50,19.4186939 L50,15.5813061 C50,14.7332434 50.6705,14.0455835 51.49925,14.0455835 C52.328,14.0455835 53,14.7332434 53,15.5813061 L53,19.4186939 C53,20.2659891 52.328,20.9528815 51.49925,20.9528815 C50.6705,20.9528815 50,20.2659891 50,19.4186939 M50,32.4658124 L50,28.6284246 C50,27.7803619 50.6705,27.0934695 51.49925,27.0934695 C52.328,27.0934695 53,27.7803619 53,28.6284246 L53,32.4658124 C53,33.3131076 52.328,34 51.49925,34 C50.6705,34 50,33.3131076 50,32.4658124" id="Fill-53"></path>
                    <g id="Group-9" transform="translate(45.000000, 29.000000)">
                        <path d="M0.438777424,11.5604451 C-0.146259141,10.9753719 -0.146259141,10.0257532 0.438777424,9.4391799 L9.43933996,0.438804851 C10.0243765,-0.146268284 10.9746859,-0.146268284 11.5612226,0.438804851 C12.1462591,1.02387798 12.1462591,1.97424678 11.5612226,2.5608201 L2.55990999,11.5604451 C2.26739171,11.8537317 1.88336771,12 1.49934371,12 C1.11456966,12 0.731295706,11.8537317 0.438777424,11.5604451" id="Fill-63"></path>
                        <path d="M9.43933996,11.5604451 L0.438777424,2.5608201 C-0.146259141,1.97424678 -0.146259141,1.02387798 0.438777424,0.438804851 C1.02381399,-0.146268284 1.97487343,-0.146268284 2.55990999,0.438804851 L11.5612226,9.4391799 C12.1462591,10.0257532 12.1462591,10.9753719 11.5612226,11.5604451 C11.2679542,11.8537317 10.8839302,12 10.4999062,12 C10.1158822,12 9.73260829,11.8537317 9.43933996,11.5604451" id="Fill-65"></path>
                    </g>
                </g>
                <g id="Error-R-1" transform="translate(256.000000, 56.000000)" fill="#FB374C">
                    <path d="M1.54324957,54 C0.690604182,54 0,53.3295 0,52.5 C0,51.672 0.690604182,51 1.54324957,51 L5.40137349,51 C6.25401888,51 6.94462306,51.672 6.94462306,52.5 C6.94462306,53.3295 6.25401888,54 5.40137349,54 L1.54324957,54 Z M14.6616425,54 C13.8089971,54 13.118393,53.3295 13.118393,52.5 C13.118393,51.672 13.8089971,51 14.6616425,51 L18.5189948,51 C19.3708686,51 20.063016,51.672 20.063016,52.5 C20.063016,53.3295 19.3708686,54 18.5189948,54 L14.6616425,54 Z M27.7784922,54 C26.9266185,54 26.2360143,53.3295 26.2360143,52.5 C26.2360143,51.672 26.9266185,51 27.7784922,51 L28.4567504,51 C29.3086242,51 30,51.672 30,52.5 C30,53.3295 29.3086242,54 28.4567504,54 L27.7784922,54 Z" id="Fill-45"></path>
                    <path d="M28,18.372218 L28,14.5349194 C28,13.6868764 28.67125,13 29.5,13 C30.328,13 31,13.6868764 31,14.5349194 L31,18.372218 C31,19.2194935 30.328,19.9071374 29.5,19.9071374 C28.67125,19.9071374 28,19.2194935 28,18.372218 M28,31.4198005 L28,27.580967 C28,26.7344589 28.67125,26.0460476 29.5,26.0460476 C30.328,26.0460476 31,26.7344589 31,27.580967 L31,31.4198005 C31,32.2663085 30.328,32.953185 29.5,32.953185 C28.67125,32.953185 28,32.2663085 28,31.4198005 M28,44.4650806 L28,40.6285495 C28,39.7797391 28.67125,39.0936301 29.5,39.0936301 C30.328,39.0936301 31,39.7797391 31,40.6285495 L31,44.4650806 C31,45.313891 30.328,46 29.5,46 C28.67125,46 28,45.313891 28,44.4650806" id="Fill-51"></path>
                    <path d="M23.4387774,11.5619521 C22.8537409,10.9753879 22.8537409,10.0257841 23.4387774,9.43921991 L32.43934,0.438235432 C33.0251266,-0.146078477 33.975436,-0.146078477 34.5612226,0.438235432 C35.1462591,1.02554967 35.1462591,1.97440345 34.5612226,2.56096761 L25.56066,11.5619521 C25.2673917,11.8544841 24.8841178,12 24.5000938,12 C24.1153197,12 23.7320458,11.8544841 23.4387774,11.5619521" id="Fill-59"></path>
                    <path d="M32.43934,11.5619521 L23.4387774,2.56096761 C22.8537409,1.97440345 22.8537409,1.02554967 23.4387774,0.438235432 C24.024564,-0.146078477 24.9748734,-0.146078477 25.56066,0.438235432 L34.5612226,9.43921991 C35.1462591,10.0257841 35.1462591,10.9753879 34.5612226,11.5619521 C34.2679542,11.8544841 33.8846803,12 33.4999062,12 C33.1158822,12 32.7326083,11.8544841 32.43934,11.5619521" id="Fill-61"></path>
                </g>
                <g id="Group-R" transform="translate(170.000000, 76.000000)">
                    <polygon id="Fill-67" fill="#FFFFFF" points="3 92 79 92 79 2 3 2"></polygon>
                    <g id="Group-3-" transform="translate(0.000000, 60.000000)">
                        <path d="M57.8593198,23 C56.8316298,23 56,22.552 56,22 C56,21.4475 56.8316298,21 57.8593198,21 L59.1425386,21 C60.1683702,21 61,21.4475 61,22 C61,22.552 60.1683702,23 59.1425386,23 L57.8593198,23 Z" id="Fill-73" fill="#472F92"></path>
                        <path d="M50.8582838,23 C49.8320951,23 49,22.552 49,21.9995 C49,21.447 49.8320951,21 50.8582838,21 L52.1417162,21 C53.1679049,21 54,21.447 54,21.9995 C54,22.552 53.1679049,23 52.1417162,23 L50.8582838,23 Z" id="Fill-74" fill="#472F92"></path>
                        <path d="M64.8577002,23 C63.8322497,23 63,22.5516121 63,22.0002499 C63,21.4473882 63.8322497,21 64.8577002,21 L66.1422998,21 C67.1658926,21 68,21.4473882 68,22.0002499 C68,22.5516121 67.1658926,23 66.1422998,23 L64.8577002,23 Z" id="Fill-75" fill="#472F92"></path>
                        <path d="M71.8580453,23 C70.8305463,23 70,22.552 70,22 C70,21.447 70.8305463,21 71.8580453,21 L73.1419547,21 C74.1666667,21 75,21.447 75,22 C75,22.552 74.1666667,23 73.1419547,23 L71.8580453,23 Z" id="Fill-76" fill="#472F92"></path>
                        <path d="M47.8599034,9 C46.8314753,9 46,8.55261185 46,8.00074981 C46,7.4483879 46.8314753,7 47.8599034,7 L49.1428837,7 C50.1666667,7 51,7.4483879 51,8.00074981 C51,8.55261185 50.1666667,9 49.1428837,9 L47.8599034,9 Z" id="Fill-77" fill="#472F92"></path>
                        <path d="M54.8589744,9 C53.8324043,9 53,8.552 53,7.9995 C53,7.4475 53.8324043,7 54.8589744,7 L56.1410256,7 C57.1675957,7 58,7.4475 58,7.9995 C58,8.552 57.1675957,9 56.1410256,9 L54.8589744,9 Z" id="Fill-78" fill="#472F92"></path>
                        <path d="M67.0004961,6.00000012 C70.3134724,6.00164373 72.9975354,8.6857936 73.0000003,12.0007436 C72.9975352,15.3151896 70.3130658,18.0000001 66.9995036,18.0000001 C63.7625288,17.9983932 61.1248239,15.4348641 61.0043006,12.2256647 L61.0000003,12.0007436 L62.0000003,12.0000001 L61.0000003,11.998761 C61.0040135,8.75998472 63.5669575,6.12392548 66.7756128,6.00424316 L67.0004961,6.00000012 Z M67.0004964,7.99999988 C64.8589409,8.00106286 63.1115648,9.6833115 63.0051318,11.8014267 L62.9999992,12.001239 L63.0050381,12.1989608 C63.1105236,14.3159819 64.858756,15.9989371 66.9999992,15.9999999 C69.2086872,15.9999999 70.9983564,14.2101035 70.9999992,12.0007437 C70.9983566,9.79075673 69.2087537,8.00109591 67.0004964,7.99999988 Z" id="Fill-79" fill="#2FB5C0" fill-rule="nonzero"></path>
                        <path d="M66,11.7091711 L66,8.29082894 C66,7.57800237 66.4477761,7 67,7 C67.5522239,7 68,7.57800237 68,8.29082894 L68,11.7091711 C68,12.4219976 67.5522239,13 67,13 C66.4477761,13 66,12.4219976 66,11.7091711" id="Fill-80" fill="#2FB5C0"></path>
                        <path d="M78.4434915,0 L2.55728633,0 C1.88099199,0 1.22433901,0.272080961 0.748077179,0.751321408 C0.272572142,1.22594737 0,1.8816335 0,2.55784502 L0,29.4429335 C0,30.1169762 0.272649029,30.7728473 0.74997462,31.2505828 C1.22648794,31.7275053 1.88249746,32 2.55728633,32 L78.4434915,32 C79.1168398,32 79.7711649,31.7280641 80.2489007,31.2524819 C80.7278402,30.771854 81,30.1163434 81,29.4429335 L81,2.55784502 C81,1.88226655 80.7279168,1.22694045 80.2508032,0.749417226 C79.7733284,0.271532339 79.118339,0 78.4434915,0 Z M2.55728633,2 L78.4434915,2 C78.5875503,2 78.7335888,2.06054171 78.8359829,2.16302374 C78.9389252,2.26605441 79,2.4131562 79,2.55784502 L79,29.4429335 C79,29.5858982 78.9384502,29.734144 78.8350348,29.8379264 C78.7337886,29.9387048 78.5863016,30 78.4434915,30 L2.55728633,30 C2.41379199,30 2.26658351,29.9388522 2.16479497,29.8369763 C2.06141755,29.7335101 2,29.585767 2,29.4429335 L2,2.55784502 C2,2.41328763 2.06094204,2.26668845 2.16384561,2.16397264 C2.26679293,2.060393 2.41254823,2 2.55728633,2 Z" id="Path" fill="#472F92" fill-rule="nonzero"></path>
                    </g>
                    <g id="Group-2" transform="translate(0.000000, 30.000000)">
                        <path d="M57.8593198,23 C56.8316298,23 56,22.552 56,22 C56,21.4475 56.8316298,21 57.8593198,21 L59.1425386,21 C60.1683702,21 61,21.4475 61,22 C61,22.552 60.1683702,23 59.1425386,23 L57.8593198,23 Z" id="Fill-73" fill="#472F92"></path>
                        <path d="M50.8582838,23 C49.8320951,23 49,22.552 49,21.9995 C49,21.447 49.8320951,21 50.8582838,21 L52.1417162,21 C53.1679049,21 54,21.447 54,21.9995 C54,22.552 53.1679049,23 52.1417162,23 L50.8582838,23 Z" id="Fill-74" fill="#472F92"></path>
                        <path d="M64.8577002,23 C63.8322497,23 63,22.5516121 63,22.0002499 C63,21.4473882 63.8322497,21 64.8577002,21 L66.1422998,21 C67.1658926,21 68,21.4473882 68,22.0002499 C68,22.5516121 67.1658926,23 66.1422998,23 L64.8577002,23 Z" id="Fill-75" fill="#472F92"></path>
                        <path d="M71.8580453,23 C70.8305463,23 70,22.552 70,22 C70,21.447 70.8305463,21 71.8580453,21 L73.1419547,21 C74.1666667,21 75,21.447 75,22 C75,22.552 74.1666667,23 73.1419547,23 L71.8580453,23 Z" id="Fill-76" fill="#472F92"></path>
                        <path d="M47.8599034,9 C46.8314753,9 46,8.55261185 46,8.00074981 C46,7.4483879 46.8314753,7 47.8599034,7 L49.1428837,7 C50.1666667,7 51,7.4483879 51,8.00074981 C51,8.55261185 50.1666667,9 49.1428837,9 L47.8599034,9 Z" id="Fill-77" fill="#472F92"></path>
                        <path d="M54.8589744,9 C53.8324043,9 53,8.552 53,7.9995 C53,7.4475 53.8324043,7 54.8589744,7 L56.1410256,7 C57.1675957,7 58,7.4475 58,7.9995 C58,8.552 57.1675957,9 56.1410256,9 L54.8589744,9 Z" id="Fill-78" fill="#472F92"></path>
                        <path d="M67.0004961,6.00000012 C70.3134724,6.00164373 72.9975354,8.6857936 73.0000003,12.0007436 C72.9975352,15.3151896 70.3130658,18.0000001 66.9995036,18.0000001 C63.7625288,17.9983932 61.1248239,15.4348641 61.0043006,12.2256647 L61.0000003,12.0007436 L62.0000003,12.0000001 L61.0000003,11.998761 C61.0040135,8.75998472 63.5669575,6.12392548 66.7756128,6.00424316 L67.0004961,6.00000012 Z M67.0004964,7.99999988 C64.8589409,8.00106286 63.1115648,9.6833115 63.0051318,11.8014267 L62.9999992,12.001239 L63.0050381,12.1989608 C63.1105236,14.3159819 64.858756,15.9989371 66.9999992,15.9999999 C69.2086872,15.9999999 70.9983564,14.2101035 70.9999992,12.0007437 C70.9983566,9.79075673 69.2087537,8.00109591 67.0004964,7.99999988 Z" id="Fill-79" fill="#2FB5C0" fill-rule="nonzero"></path>
                        <path d="M66,11.7091711 L66,8.29082894 C66,7.57800237 66.4477761,7 67,7 C67.5522239,7 68,7.57800237 68,8.29082894 L68,11.7091711 C68,12.4219976 67.5522239,13 67,13 C66.4477761,13 66,12.4219976 66,11.7091711" id="Fill-80" fill="#2FB5C0"></path>
                        <path d="M78.4434915,0 L2.55728633,0 C1.88099199,0 1.22433901,0.272080961 0.748077179,0.751321408 C0.272572142,1.22594737 0,1.8816335 0,2.55784502 L0,29.4429335 C0,30.1169762 0.272649029,30.7728473 0.74997462,31.2505828 C1.22648794,31.7275053 1.88249746,32 2.55728633,32 L78.4434915,32 C79.1168398,32 79.7711649,31.7280641 80.2489007,31.2524819 C80.7278402,30.771854 81,30.1163434 81,29.4429335 L81,2.55784502 C81,1.88226655 80.7279168,1.22694045 80.2508032,0.749417226 C79.7733284,0.271532339 79.118339,0 78.4434915,0 Z M2.55728633,2 L78.4434915,2 C78.5875503,2 78.7335888,2.06054171 78.8359829,2.16302374 C78.9389252,2.26605441 79,2.4131562 79,2.55784502 L79,29.4429335 C79,29.5858982 78.9384502,29.734144 78.8350348,29.8379264 C78.7337886,29.9387048 78.5863016,30 78.4434915,30 L2.55728633,30 C2.41379199,30 2.26658351,29.9388522 2.16479497,29.8369763 C2.06141755,29.7335101 2,29.585767 2,29.4429335 L2,2.55784502 C2,2.41328763 2.06094204,2.26668845 2.16384561,2.16397264 C2.26679293,2.060393 2.41254823,2 2.55728633,2 Z" id="Path" fill="#472F92" fill-rule="nonzero"></path>
                    </g>
                    <g id="Group-1">
                        <path d="M57.8593198,23 C56.8316298,23 56,22.552 56,22 C56,21.4475 56.8316298,21 57.8593198,21 L59.1425386,21 C60.1683702,21 61,21.4475 61,22 C61,22.552 60.1683702,23 59.1425386,23 L57.8593198,23 Z" id="Fill-73" fill="#472F92"></path>
                        <path d="M50.8582838,23 C49.8320951,23 49,22.552 49,21.9995 C49,21.447 49.8320951,21 50.8582838,21 L52.1417162,21 C53.1679049,21 54,21.447 54,21.9995 C54,22.552 53.1679049,23 52.1417162,23 L50.8582838,23 Z" id="Fill-74" fill="#472F92"></path>
                        <path d="M64.8577002,23 C63.8322497,23 63,22.5516121 63,22.0002499 C63,21.4473882 63.8322497,21 64.8577002,21 L66.1422998,21 C67.1658926,21 68,21.4473882 68,22.0002499 C68,22.5516121 67.1658926,23 66.1422998,23 L64.8577002,23 Z" id="Fill-75" fill="#472F92"></path>
                        <path d="M71.8580453,23 C70.8305463,23 70,22.552 70,22 C70,21.447 70.8305463,21 71.8580453,21 L73.1419547,21 C74.1666667,21 75,21.447 75,22 C75,22.552 74.1666667,23 73.1419547,23 L71.8580453,23 Z" id="Fill-76" fill="#472F92"></path>
                        <path d="M47.8599034,9 C46.8314753,9 46,8.55261185 46,8.00074981 C46,7.4483879 46.8314753,7 47.8599034,7 L49.1428837,7 C50.1666667,7 51,7.4483879 51,8.00074981 C51,8.55261185 50.1666667,9 49.1428837,9 L47.8599034,9 Z" id="Fill-77" fill="#472F92"></path>
                        <path d="M54.8589744,9 C53.8324043,9 53,8.552 53,7.9995 C53,7.4475 53.8324043,7 54.8589744,7 L56.1410256,7 C57.1675957,7 58,7.4475 58,7.9995 C58,8.552 57.1675957,9 56.1410256,9 L54.8589744,9 Z" id="Fill-78" fill="#472F92"></path>
                        <path d="M67.0004961,6.00000012 C70.3134724,6.00164373 72.9975354,8.6857936 73.0000003,12.0007436 C72.9975352,15.3151896 70.3130658,18.0000001 66.9995036,18.0000001 C63.7625288,17.9983932 61.1248239,15.4348641 61.0043006,12.2256647 L61.0000003,12.0007436 L62.0000003,12.0000001 L61.0000003,11.998761 C61.0040135,8.75998472 63.5669575,6.12392548 66.7756128,6.00424316 L67.0004961,6.00000012 Z M67.0004964,7.99999988 C64.8589409,8.00106286 63.1115648,9.6833115 63.0051318,11.8014267 L62.9999992,12.001239 L63.0050381,12.1989608 C63.1105236,14.3159819 64.858756,15.9989371 66.9999992,15.9999999 C69.2086872,15.9999999 70.9983564,14.2101035 70.9999992,12.0007437 C70.9983566,9.79075673 69.2087537,8.00109591 67.0004964,7.99999988 Z" id="Fill-79" fill="#2FB5C0" fill-rule="nonzero"></path>
                        <path d="M66,11.7091711 L66,8.29082894 C66,7.57800237 66.4477761,7 67,7 C67.5522239,7 68,7.57800237 68,8.29082894 L68,11.7091711 C68,12.4219976 67.5522239,13 67,13 C66.4477761,13 66,12.4219976 66,11.7091711" id="Fill-80" fill="#2FB5C0"></path>
                        <path d="M78.4434915,0 L2.55728633,0 C1.88099199,0 1.22433901,0.272080961 0.748077179,0.751321408 C0.272572142,1.22594737 0,1.8816335 0,2.55784502 L0,29.4429335 C0,30.1169762 0.272649029,30.7728473 0.74997462,31.2505828 C1.22648794,31.7275053 1.88249746,32 2.55728633,32 L78.4434915,32 C79.1168398,32 79.7711649,31.7280641 80.2489007,31.2524819 C80.7278402,30.771854 81,30.1163434 81,29.4429335 L81,2.55784502 C81,1.88226655 80.7279168,1.22694045 80.2508032,0.749417226 C79.7733284,0.271532339 79.118339,0 78.4434915,0 Z M2.55728633,2 L78.4434915,2 C78.5875503,2 78.7335888,2.06054171 78.8359829,2.16302374 C78.9389252,2.26605441 79,2.4131562 79,2.55784502 L79,29.4429335 C79,29.5858982 78.9384502,29.734144 78.8350348,29.8379264 C78.7337886,29.9387048 78.5863016,30 78.4434915,30 L2.55728633,30 C2.41379199,30 2.26658351,29.9388522 2.16479497,29.8369763 C2.06141755,29.7335101 2,29.585767 2,29.4429335 L2,2.55784502 C2,2.41328763 2.06094204,2.26668845 2.16384561,2.16397264 C2.26679293,2.060393 2.41254823,2 2.55728633,2 Z" id="Path" fill="#472F92" fill-rule="nonzero"></path>
                    </g>
                </g>
                <g id="Group-L" transform="translate(68.000000, 76.000000)" fill="#472F92">
                    <g id="Group-3" transform="translate(0.000000, 60.000000)">
                        <path d="M9.25959006,14 C8.56303676,14 8,13.552 8,13 C8,12.447 8.56303676,12 9.25959006,12 L28.7404099,12 C29.4357037,12 30,12.447 30,13 C30,13.552 29.4357037,14 28.7404099,14 L9.25959006,14 Z" id="Fill-109"></path>
                        <path d="M9.4125212,24 C8.63241945,24 8,23.5516121 8,22.9997501 C8,22.4473882 8.63241945,22 9.4125212,22 L26.5874788,22 C27.3675806,22 28,22.4473882 28,22.9997501 C28,23.5516121 27.3675806,24 26.5874788,24 L9.4125212,24 Z" id="Fill-110"></path>
                        <path d="M9.3712131,9 C8.61361786,9 8,8.5516121 8,8.00024994 C8,7.44738815 8.61361786,7 9.3712131,7 L22.6287869,7 C23.3850109,7 24,7.44738815 24,8.00024994 C24,8.5516121 23.3850109,9 22.6287869,9 L9.3712131,9 Z" id="Fill-111"></path>
                        <path d="M9.57057784,19 C8.70283358,19 8,18.552112 8,17.9997501 C8,17.4473882 8.70283358,17 9.57057784,17 L18.4286369,17 C19.2963811,17 20,17.4473882 20,17.9997501 C20,18.552112 19.2963811,19 18.4286369,19 L9.57057784,19 Z" id="Fill-112"></path>
                        <path d="M78.4434302,0 L2.55579188,0 C1.87969031,0 1.22428216,0.271901403 0.746718136,0.751150493 C0.271145202,1.22584081 0,1.8814922 0,2.5571069 L0,29.4436717 C0,30.1182201 0.271485232,30.7760557 0.748615625,31.2523057 C1.22734353,31.7288704 1.88170916,32 2.55579188,32 L78.4434302,32 C79.1169056,32 79.7712209,31.7287507 80.2488779,31.2532533 C80.7283881,30.7720627 81,30.1174032 81,29.4436717 L81,2.5571069 C81,1.8809786 80.7276718,1.2249329 80.2488779,0.748303796 C79.7775421,0.272722951 79.119813,0 78.4434302,0 Z M2.55579188,2 L78.4434302,2 C78.5876275,2 78.7335677,2.0605131 78.8331292,2.16096457 C78.9394417,2.26682821 79,2.4127147 79,2.5571069 L79,29.4436717 C79,29.5871383 78.9388735,29.73447 78.8350241,29.8386859 C78.7343011,29.938942 78.5870153,30 78.4434302,30 L2.55579188,30 C2.41146674,30 2.2641706,29.9389694 2.16057198,29.8358392 C2.06116373,29.7366131 2,29.5884073 2,29.4436717 L2,2.5571069 C2,2.41182771 2.06044872,2.26565774 2.16152262,2.16477033 C2.26554287,2.06038816 2.41110627,2 2.55579188,2 Z" id="Path" fill-rule="nonzero"></path>
                    </g>
                    <g id="Group-2" transform="translate(0.000000, 30.000000)">
                        <path d="M9.25959006,14 C8.56303676,14 8,13.552 8,13 C8,12.447 8.56303676,12 9.25959006,12 L28.7404099,12 C29.4357037,12 30,12.447 30,13 C30,13.552 29.4357037,14 28.7404099,14 L9.25959006,14 Z" id="Fill-109"></path>
                        <path d="M9.4125212,24 C8.63241945,24 8,23.5516121 8,22.9997501 C8,22.4473882 8.63241945,22 9.4125212,22 L26.5874788,22 C27.3675806,22 28,22.4473882 28,22.9997501 C28,23.5516121 27.3675806,24 26.5874788,24 L9.4125212,24 Z" id="Fill-110"></path>
                        <path d="M9.3712131,9 C8.61361786,9 8,8.5516121 8,8.00024994 C8,7.44738815 8.61361786,7 9.3712131,7 L22.6287869,7 C23.3850109,7 24,7.44738815 24,8.00024994 C24,8.5516121 23.3850109,9 22.6287869,9 L9.3712131,9 Z" id="Fill-111"></path>
                        <path d="M9.57057784,19 C8.70283358,19 8,18.552112 8,17.9997501 C8,17.4473882 8.70283358,17 9.57057784,17 L18.4286369,17 C19.2963811,17 20,17.4473882 20,17.9997501 C20,18.552112 19.2963811,19 18.4286369,19 L9.57057784,19 Z" id="Fill-112"></path>
                        <path d="M78.4434302,0 L2.55579188,0 C1.87969031,0 1.22428216,0.271901403 0.746718136,0.751150493 C0.271145202,1.22584081 0,1.8814922 0,2.5571069 L0,29.4436717 C0,30.1182201 0.271485232,30.7760557 0.748615625,31.2523057 C1.22734353,31.7288704 1.88170916,32 2.55579188,32 L78.4434302,32 C79.1169056,32 79.7712209,31.7287507 80.2488779,31.2532533 C80.7283881,30.7720627 81,30.1174032 81,29.4436717 L81,2.5571069 C81,1.8809786 80.7276718,1.2249329 80.2488779,0.748303796 C79.7775421,0.272722951 79.119813,0 78.4434302,0 Z M2.55579188,2 L78.4434302,2 C78.5876275,2 78.7335677,2.0605131 78.8331292,2.16096457 C78.9394417,2.26682821 79,2.4127147 79,2.5571069 L79,29.4436717 C79,29.5871383 78.9388735,29.73447 78.8350241,29.8386859 C78.7343011,29.938942 78.5870153,30 78.4434302,30 L2.55579188,30 C2.41146674,30 2.2641706,29.9389694 2.16057198,29.8358392 C2.06116373,29.7366131 2,29.5884073 2,29.4436717 L2,2.5571069 C2,2.41182771 2.06044872,2.26565774 2.16152262,2.16477033 C2.26554287,2.06038816 2.41110627,2 2.55579188,2 Z" id="Path" fill-rule="nonzero"></path>
                    </g>
                    <g id="Group-1">
                        <path d="M78.4434302,0 L2.55579188,0 C1.87969031,0 1.22428216,0.271901403 0.746718136,0.751150493 C0.271145202,1.22584081 0,1.8814922 0,2.5571069 L0,29.4436717 C0,30.1182201 0.271485232,30.7760557 0.748615625,31.2523057 C1.22734353,31.7288704 1.88170916,32 2.55579188,32 L78.4434302,32 C79.1169056,32 79.7712209,31.7287507 80.2488779,31.2532533 C80.7283881,30.7720627 81,30.1174032 81,29.4436717 L81,2.5571069 C81,1.8809786 80.7276718,1.2249329 80.2488779,0.748303796 C79.7775421,0.272722951 79.119813,0 78.4434302,0 Z M2.55579188,2 L78.4434302,2 C78.5876275,2 78.7335677,2.0605131 78.8331292,2.16096457 C78.9394417,2.26682821 79,2.4127147 79,2.5571069 L79,29.4436717 C79,29.5871383 78.9388735,29.73447 78.8350241,29.8386859 C78.7343011,29.938942 78.5870153,30 78.4434302,30 L2.55579188,30 C2.41146674,30 2.2641706,29.9389694 2.16057198,29.8358392 C2.06116373,29.7366131 2,29.5884073 2,29.4436717 L2,2.5571069 C2,2.41182771 2.06044872,2.26565774 2.16152262,2.16477033 C2.26554287,2.06038816 2.41110627,2 2.55579188,2 Z" id="Path" fill-rule="nonzero"></path>
                        <path d="M9.25959006,14 C8.56303676,14 8,13.552 8,13 C8,12.447 8.56303676,12 9.25959006,12 L28.7404099,12 C29.4357037,12 30,12.447 30,13 C30,13.552 29.4357037,14 28.7404099,14 L9.25959006,14 Z" id="Fill-109"></path>
                        <path d="M9.4125212,24 C8.63241945,24 8,23.5516121 8,22.9997501 C8,22.4473882 8.63241945,22 9.4125212,22 L26.5874788,22 C27.3675806,22 28,22.4473882 28,22.9997501 C28,23.5516121 27.3675806,24 26.5874788,24 L9.4125212,24 Z" id="Fill-110"></path>
                        <path d="M9.3712131,9 C8.61361786,9 8,8.5516121 8,8.00024994 C8,7.44738815 8.61361786,7 9.3712131,7 L22.6287869,7 C23.3850109,7 24,7.44738815 24,8.00024994 C24,8.5516121 23.3850109,9 22.6287869,9 L9.3712131,9 Z" id="Fill-111"></path>
                        <path d="M9.57057784,19 C8.70283358,19 8,18.552112 8,17.9997501 C8,17.4473882 8.70283358,17 9.57057784,17 L18.4286369,17 C19.2963811,17 20,17.4473882 20,17.9997501 C20,18.552112 19.2963811,19 18.4286369,19 L9.57057784,19 Z" id="Fill-112"></path>
                    </g>
                </g>
                <g id="Group-M" transform="translate(104.000000, 61.000000)">
                    <polygon id="Fill-148" fill="#FFFFFF" points="2 117 106 117 106 2 2 2"></polygon>
                    <g id="Group-3" transform="translate(0.000000, 78.000000)">
                        <path d="M94.0004958,10 C97.3134721,10.0016436 99.9975351,12.6857935 100,16.0007434 C99.997535,19.3151895 97.3130656,22 93.9995034,22 C90.7625285,21.9983931 88.1248236,19.434864 88.0043004,16.2256646 L88,16.0007434 L89,16 L88,15.9987609 C88.0040132,12.7599846 90.5669572,10.1239254 93.7756126,10.004243 L94.0004958,10 Z M94.0004961,11.9999998 C91.8589406,12.0010627 90.1115645,13.6833114 90.0051315,15.8014266 L89.999999,16.0012388 L90.0050378,16.1989606 C90.1105234,18.3159818 91.8587557,19.9989369 93.999999,19.9999998 C96.2086869,19.9999998 97.9983561,18.2101034 97.999999,16.0007436 C97.9983563,13.7907566 96.2087535,12.0010958 94.0004961,11.9999998 Z" id="Fill-79-Copy-2" fill="#2FB5C0" fill-rule="nonzero"></path>
                        <path d="M92.9999997,15.7091709 L92.9999997,12.2908288 C92.9999997,11.5780022 93.4477758,10.9999999 93.9999997,10.9999999 C94.5522236,10.9999999 94.9999997,11.5780022 94.9999997,12.2908288 L94.9999997,15.7091709 C94.9999997,16.4219975 94.5522236,16.9999999 93.9999997,16.9999999 C93.4477758,16.9999999 92.9999997,16.4219975 92.9999997,15.7091709" id="Fill-80-Copy-2" fill="#2FB5C0"></path>
                        <path d="M12.9519691,18 C11.873352,18 11,17.5524 11,16.9996 C11,16.4476 11.873352,16 12.9519691,16 L46.0480309,16 C47.125087,16 48,16.4476 48,16.9996 C48,17.5524 47.125087,18 46.0480309,18 L12.9519691,18 Z" id="Fill-149" fill="#472F92"></path>
                        <path d="M12.9571004,30 C11.8759981,30 11,29.5519104 11,28.9998 C11,28.4472895 11.8759981,28 12.9571004,28 L39.0444653,28 C40.1247847,28 41,28.4472895 41,28.9998 C41,29.5519104 40.1247847,30 39.0444653,30 L12.9571004,30 Z" id="Fill-150" fill="#472F92"></path>
                        <path d="M12.9834973,12 C11.8878134,12 11,11.5516897 11,11.0002 C11,10.4475105 11.8878134,10 12.9834973,10 L34.0180895,10 C35.1121866,10 36,10.4475105 36,11.0002 C36,11.5516897 35.1121866,12 34.0180895,12 L12.9834973,12 Z" id="Fill-151" fill="#472F92"></path>
                        <path d="M12.9552428,24 C11.8755986,24 11,23.552 11,23.0004 C11,22.448 11.8755986,22 12.9552428,22 L25.0463207,22 C26.1251832,22 27,22.448 27,23.0004 C27,23.552 26.1251832,24 25.0463207,24 L12.9552428,24 Z" id="Fill-152" fill="#472F92"></path>
                        <path d="M78.1766754,30 C76.9738903,30 76,29.552 76,29.0004 C76,28.4476 76.9738903,28 78.1766754,28 L79.8233246,28 C81.0234987,28 82,28.4476 82,29.0004 C82,29.552 81.0234987,30 79.8233246,30 L78.1766754,30 Z" id="Fill-153" fill="#472F92"></path>
                        <path d="M69.175805,30 C67.9747607,30 67,29.5528 67,29 C67,28.448 67.9747607,28 69.175805,28 L70.824195,28 C72.024369,28 73,28.448 73,29 C73,29.5528 72.024369,30 70.824195,30 L69.175805,30 Z" id="Fill-154" fill="#472F92"></path>
                        <path d="M87.175174,30 C85.9736079,30 85,29.5524 85,29 C85,28.4484 85.9736079,28 87.175174,28 L88.824826,28 C90.024652,28 91,28.4484 91,29 C91,29.5524 90.024652,30 88.824826,30 L87.175174,30 Z" id="Fill-155" fill="#472F92"></path>
                        <path d="M96.1766754,30 C94.9747607,30 94,29.552 94,28.9996 C94,28.4472 94.9747607,28 96.1766754,28 L97.824195,28 C99.0234987,28 100,28.4472 100,28.9996 C100,29.552 99.0234987,30 97.824195,30 L96.1766754,30 Z" id="Fill-156" fill="#472F92"></path>
                        <path d="M67.1764364,12 C65.974173,12 65,11.5516897 65,11.0002 C65,10.4475105 65.974173,10 67.1764364,10 L68.8235636,10 C70.0249565,10 71,10.4475105 71,11.0002 C71,11.5516897 70.0249565,12 68.8235636,12 L67.1764364,12 Z" id="Fill-157" fill="#472F92"></path>
                        <path d="M76.1758816,12 C74.9734436,12 74,11.5527105 74,10.9998 C74,10.4476895 74.9734436,10 76.1758816,10 L77.8232477,10 C79.0239443,10 80,10.4476895 80,10.9998 C80,11.5527105 79.0239443,12 77.8232477,12 L76.1758816,12 Z" id="Fill-158" fill="#472F92"></path>
                        <path d="M106.053234,0 C106.564639,0 107.066704,0.209139713 107.428658,0.574155092 C107.792168,0.938387177 108,1.44361233 108,1.95823701 L108,39.041763 C108,39.5579543 107.790612,40.0616128 107.428658,40.4266282 C107.066704,40.7908603 106.564639,41 106.053234,41 L1.94598802,41 C1.43224718,41 0.93251746,40.7908603 0.569785293,40.4266282 C0.207831521,40.0616128 0,39.5579543 0,39.041763 L0,1.95823701 C0,1.44361233 0.207831521,0.938387177 0.569785293,0.574155092 C0.93251746,0.209139713 1.43224718,0 1.94598802,0 L106.053234,0 Z M106,2 L2,2 L2,39 L106,39 L106,2 Z" id="Path" fill="#472F92" fill-rule="nonzero"></path>
                    </g>
                    <g id="Group-2-" transform="translate(0.000000, 39.000000)">
                        <path d="M94.0004958,10 C97.3134721,10.0016436 99.9975351,12.6857935 100,16.0007434 C99.997535,19.3151895 97.3130656,22 93.9995034,22 C90.7625285,21.9983931 88.1248236,19.434864 88.0043004,16.2256646 L88,16.0007434 L89,16 L88,15.9987609 C88.0040132,12.7599846 90.5669572,10.1239254 93.7756126,10.004243 L94.0004958,10 Z M94.0004961,11.9999998 C91.8589406,12.0010627 90.1115645,13.6833114 90.0051315,15.8014266 L89.999999,16.0012388 L90.0050378,16.1989606 C90.1105234,18.3159818 91.8587557,19.9989369 93.999999,19.9999998 C96.2086869,19.9999998 97.9983561,18.2101034 97.999999,16.0007436 C97.9983563,13.7907566 96.2087535,12.0010958 94.0004961,11.9999998 Z" id="Fill-79-Copy-2" fill="#2FB5C0" fill-rule="nonzero"></path>
                        <path d="M92.9999997,15.7091709 L92.9999997,12.2908288 C92.9999997,11.5780022 93.4477758,10.9999999 93.9999997,10.9999999 C94.5522236,10.9999999 94.9999997,11.5780022 94.9999997,12.2908288 L94.9999997,15.7091709 C94.9999997,16.4219975 94.5522236,16.9999999 93.9999997,16.9999999 C93.4477758,16.9999999 92.9999997,16.4219975 92.9999997,15.7091709" id="Fill-80-Copy-2" fill="#2FB5C0"></path>
                        <path d="M12.9519691,18 C11.873352,18 11,17.5524 11,16.9996 C11,16.4476 11.873352,16 12.9519691,16 L46.0480309,16 C47.125087,16 48,16.4476 48,16.9996 C48,17.5524 47.125087,18 46.0480309,18 L12.9519691,18 Z" id="Fill-149" fill="#472F92"></path>
                        <path d="M12.9571004,30 C11.8759981,30 11,29.5519104 11,28.9998 C11,28.4472895 11.8759981,28 12.9571004,28 L39.0444653,28 C40.1247847,28 41,28.4472895 41,28.9998 C41,29.5519104 40.1247847,30 39.0444653,30 L12.9571004,30 Z" id="Fill-150" fill="#472F92"></path>
                        <path d="M12.9834973,12 C11.8878134,12 11,11.5516897 11,11.0002 C11,10.4475105 11.8878134,10 12.9834973,10 L34.0180895,10 C35.1121866,10 36,10.4475105 36,11.0002 C36,11.5516897 35.1121866,12 34.0180895,12 L12.9834973,12 Z" id="Fill-151" fill="#472F92"></path>
                        <path d="M12.9552428,24 C11.8755986,24 11,23.552 11,23.0004 C11,22.448 11.8755986,22 12.9552428,22 L25.0463207,22 C26.1251832,22 27,22.448 27,23.0004 C27,23.552 26.1251832,24 25.0463207,24 L12.9552428,24 Z" id="Fill-152" fill="#472F92"></path>
                        <path d="M78.1766754,30 C76.9738903,30 76,29.552 76,29.0004 C76,28.4476 76.9738903,28 78.1766754,28 L79.8233246,28 C81.0234987,28 82,28.4476 82,29.0004 C82,29.552 81.0234987,30 79.8233246,30 L78.1766754,30 Z" id="Fill-153" fill="#472F92"></path>
                        <path d="M69.175805,30 C67.9747607,30 67,29.5528 67,29 C67,28.448 67.9747607,28 69.175805,28 L70.824195,28 C72.024369,28 73,28.448 73,29 C73,29.5528 72.024369,30 70.824195,30 L69.175805,30 Z" id="Fill-154" fill="#472F92"></path>
                        <path d="M87.175174,30 C85.9736079,30 85,29.5524 85,29 C85,28.4484 85.9736079,28 87.175174,28 L88.824826,28 C90.024652,28 91,28.4484 91,29 C91,29.5524 90.024652,30 88.824826,30 L87.175174,30 Z" id="Fill-155" fill="#472F92"></path>
                        <path d="M96.1766754,30 C94.9747607,30 94,29.552 94,28.9996 C94,28.4472 94.9747607,28 96.1766754,28 L97.824195,28 C99.0234987,28 100,28.4472 100,28.9996 C100,29.552 99.0234987,30 97.824195,30 L96.1766754,30 Z" id="Fill-156" fill="#472F92"></path>
                        <path d="M67.1764364,12 C65.974173,12 65,11.5516897 65,11.0002 C65,10.4475105 65.974173,10 67.1764364,10 L68.8235636,10 C70.0249565,10 71,10.4475105 71,11.0002 C71,11.5516897 70.0249565,12 68.8235636,12 L67.1764364,12 Z" id="Fill-157" fill="#472F92"></path>
                        <path d="M76.1758816,12 C74.9734436,12 74,11.5527105 74,10.9998 C74,10.4476895 74.9734436,10 76.1758816,10 L77.8232477,10 C79.0239443,10 80,10.4476895 80,10.9998 C80,11.5527105 79.0239443,12 77.8232477,12 L76.1758816,12 Z" id="Fill-158" fill="#472F92"></path>
                        <path d="M106.053234,0 C106.564639,0 107.066704,0.209139713 107.428658,0.574155092 C107.792168,0.938387177 108,1.44361233 108,1.95823701 L108,39.041763 C108,39.5579543 107.790612,40.0616128 107.428658,40.4266282 C107.066704,40.7908603 106.564639,41 106.053234,41 L1.94598802,41 C1.43224718,41 0.93251746,40.7908603 0.569785293,40.4266282 C0.207831521,40.0616128 0,39.5579543 0,39.041763 L0,1.95823701 C0,1.44361233 0.207831521,0.938387177 0.569785293,0.574155092 C0.93251746,0.209139713 1.43224718,0 1.94598802,0 L106.053234,0 Z M106,2 L2,2 L2,39 L106,39 L106,2 Z" id="Path" fill="#472F92" fill-rule="nonzero"></path>
                    </g>
                    <g id="Group-1">
                        <path d="M94.0004958,10 C97.3134721,10.0016436 99.9975351,12.6857935 100,16.0007434 C99.997535,19.3151895 97.3130656,22 93.9995034,22 C90.7625285,21.9983931 88.1248236,19.434864 88.0043004,16.2256646 L88,16.0007434 L89,16 L88,15.9987609 C88.0040132,12.7599846 90.5669572,10.1239254 93.7756126,10.004243 L94.0004958,10 Z M94.0004961,11.9999998 C91.8589406,12.0010627 90.1115645,13.6833114 90.0051315,15.8014266 L89.999999,16.0012388 L90.0050378,16.1989606 C90.1105234,18.3159818 91.8587557,19.9989369 93.999999,19.9999998 C96.2086869,19.9999998 97.9983561,18.2101034 97.999999,16.0007436 C97.9983563,13.7907566 96.2087535,12.0010958 94.0004961,11.9999998 Z" id="Fill-79-Copy-2" fill="#2FB5C0" fill-rule="nonzero"></path>
                        <path d="M92.9999997,15.7091709 L92.9999997,12.2908288 C92.9999997,11.5780022 93.4477758,10.9999999 93.9999997,10.9999999 C94.5522236,10.9999999 94.9999997,11.5780022 94.9999997,12.2908288 L94.9999997,15.7091709 C94.9999997,16.4219975 94.5522236,16.9999999 93.9999997,16.9999999 C93.4477758,16.9999999 92.9999997,16.4219975 92.9999997,15.7091709" id="Fill-80-Copy-2" fill="#2FB5C0"></path>
                        <path d="M12.9519691,18 C11.873352,18 11,17.5524 11,16.9996 C11,16.4476 11.873352,16 12.9519691,16 L46.0480309,16 C47.125087,16 48,16.4476 48,16.9996 C48,17.5524 47.125087,18 46.0480309,18 L12.9519691,18 Z" id="Fill-149" fill="#472F92"></path>
                        <path d="M12.9571004,30 C11.8759981,30 11,29.5519104 11,28.9998 C11,28.4472895 11.8759981,28 12.9571004,28 L39.0444653,28 C40.1247847,28 41,28.4472895 41,28.9998 C41,29.5519104 40.1247847,30 39.0444653,30 L12.9571004,30 Z" id="Fill-150" fill="#472F92"></path>
                        <path d="M12.9834973,12 C11.8878134,12 11,11.5516897 11,11.0002 C11,10.4475105 11.8878134,10 12.9834973,10 L34.0180895,10 C35.1121866,10 36,10.4475105 36,11.0002 C36,11.5516897 35.1121866,12 34.0180895,12 L12.9834973,12 Z" id="Fill-151" fill="#472F92"></path>
                        <path d="M12.9552428,24 C11.8755986,24 11,23.552 11,23.0004 C11,22.448 11.8755986,22 12.9552428,22 L25.0463207,22 C26.1251832,22 27,22.448 27,23.0004 C27,23.552 26.1251832,24 25.0463207,24 L12.9552428,24 Z" id="Fill-152" fill="#472F92"></path>
                        <path d="M78.1766754,30 C76.9738903,30 76,29.552 76,29.0004 C76,28.4476 76.9738903,28 78.1766754,28 L79.8233246,28 C81.0234987,28 82,28.4476 82,29.0004 C82,29.552 81.0234987,30 79.8233246,30 L78.1766754,30 Z" id="Fill-153" fill="#472F92"></path>
                        <path d="M69.175805,30 C67.9747607,30 67,29.5528 67,29 C67,28.448 67.9747607,28 69.175805,28 L70.824195,28 C72.024369,28 73,28.448 73,29 C73,29.5528 72.024369,30 70.824195,30 L69.175805,30 Z" id="Fill-154" fill="#472F92"></path>
                        <path d="M87.175174,30 C85.9736079,30 85,29.5524 85,29 C85,28.4484 85.9736079,28 87.175174,28 L88.824826,28 C90.024652,28 91,28.4484 91,29 C91,29.5524 90.024652,30 88.824826,30 L87.175174,30 Z" id="Fill-155" fill="#472F92"></path>
                        <path d="M96.1766754,30 C94.9747607,30 94,29.552 94,28.9996 C94,28.4472 94.9747607,28 96.1766754,28 L97.824195,28 C99.0234987,28 100,28.4472 100,28.9996 C100,29.552 99.0234987,30 97.824195,30 L96.1766754,30 Z" id="Fill-156" fill="#472F92"></path>
                        <path d="M67.1764364,12 C65.974173,12 65,11.5516897 65,11.0002 C65,10.4475105 65.974173,10 67.1764364,10 L68.8235636,10 C70.0249565,10 71,10.4475105 71,11.0002 C71,11.5516897 70.0249565,12 68.8235636,12 L67.1764364,12 Z" id="Fill-157" fill="#472F92"></path>
                        <path d="M76.1758816,12 C74.9734436,12 74,11.5527105 74,10.9998 C74,10.4476895 74.9734436,10 76.1758816,10 L77.8232477,10 C79.0239443,10 80,10.4476895 80,10.9998 C80,11.5527105 79.0239443,12 77.8232477,12 L76.1758816,12 Z" id="Fill-158" fill="#472F92"></path>
                        <path d="M106.053234,0 C106.564639,0 107.066704,0.209139713 107.428658,0.574155092 C107.792168,0.938387177 108,1.44361233 108,1.95823701 L108,39.041763 C108,39.5579543 107.790612,40.0616128 107.428658,40.4266282 C107.066704,40.7908603 106.564639,41 106.053234,41 L1.94598802,41 C1.43224718,41 0.93251746,40.7908603 0.569785293,40.4266282 C0.207831521,40.0616128 0,39.5579543 0,39.041763 L0,1.95823701 C0,1.44361233 0.207831521,0.938387177 0.569785293,0.574155092 C0.93251746,0.209139713 1.43224718,0 1.94598802,0 L106.053234,0 Z M106,2 L2,2 L2,39 L106,39 L106,2 Z" id="Path" fill="#472F92" fill-rule="nonzero"></path>
                    </g>
                </g>
            </g>
        </g>
    </g>
</svg>