<?xml version="1.0" encoding="UTF-8"?>
<svg width="53px" height="52px" viewBox="0 0 53 52" version="1.1" xmlns="http://www.w3.org/2000/svg" xmlns:xlink="http://www.w3.org/1999/xlink">
    <!-- Generator: Sketch 53.2 (72643) - https://sketchapp.com -->
    <title>Group 15</title>
    <desc>Created with Sketch.</desc>
    <g id="Symbols" stroke="none" stroke-width="1" fill="none" fill-rule="evenodd">
        <g id="illustration-/-no-result" transform="translate(-23.000000, -22.000000)">
            <g id="Group-15" transform="translate(23.000000, 22.000000)">
                <polygon id="Path" fill="#472F92" fill-rule="nonzero" points="0 0 44 0 44 52 0 52"></polygon>
                <polygon id="Path" fill="#FFFFFF" fill-rule="nonzero" points="2 2 2 50 42 50 42 2"></polygon>
                <polygon id="Fill-15" fill="#E6E7E8" points="2 50 42 50 42 3"></polygon>
                <polygon id="Path" fill="#472F92" fill-rule="nonzero" points="15 7.33333333 15 0 28.7333333 0 28.7333333 7.33333333"></polygon>
                <polygon id="Path" fill="#FFFFFF" fill-rule="nonzero" points="26.7333333 5.4 26.7333333 2.06666667 17 2.06666667 17 5.4"></polygon>
                <path d="M7,46.3333333 C6.44771525,46.3333333 6,45.8856181 6,45.3333333 C6,44.7810486 6.44771525,44.3333333 7,44.3333333 L11,44.3333333 C11.5522847,44.3333333 12,44.7810486 12,45.3333333 C12,45.8856181 11.5522847,46.3333333 11,46.3333333 L7,46.3333333 Z" id="Stroke-6" fill="#472F92" fill-rule="nonzero"></path>
                <path d="M17.6,46.3333333 C17.0477153,46.3333333 16.6,45.8856181 16.6,45.3333333 C16.6,44.7810486 17.0477153,44.3333333 17.6,44.3333333 L21.6,44.3333333 C22.1522847,44.3333333 22.6,44.7810486 22.6,45.3333333 C22.6,45.8856181 22.1522847,46.3333333 21.6,46.3333333 L17.6,46.3333333 Z" id="Stroke-7" fill="#472F92" fill-rule="nonzero"></path>
                <g id="Group" transform="translate(23.000000, 20.000000)" fill-rule="nonzero">
                    <path d="M23.3333333,11.6666667 C23.3333333,18.1090847 18.1090847,23.3333333 11.6666667,23.3333333 C5.22424858,23.3333333 0,18.1090847 0,11.6666667 C0,5.22424858 5.22424858,0 11.6666667,0 C18.1090847,0 23.3333333,5.22424858 23.3333333,11.6666667 Z" id="Stroke-8" fill="#2FB5C0"></path>
                    <path d="M21.3333333,11.6666667 C21.3333333,6.32881808 17.0045153,2 11.6666667,2 C6.32881808,2 2,6.32881808 2,11.6666667 C2,17.0045153 6.32881808,21.3333333 11.6666667,21.3333333 C17.0045153,21.3333333 21.3333333,17.0045153 21.3333333,11.6666667 Z" id="Path" fill="#FFFFFF"></path>
                    <path d="M6.26666667,11.6666667 C6.26666667,12.2189514 5.81895142,12.6666667 5.26666667,12.6666667 C4.71438192,12.6666667 4.26666667,12.2189514 4.26666667,11.6666667 C4.26666667,7.58051525 7.58051525,4.26666667 11.6666667,4.26666667 C12.2189514,4.26666667 12.6666667,4.71438192 12.6666667,5.26666667 C12.6666667,5.81895142 12.2189514,6.26666667 11.6666667,6.26666667 C8.68508475,6.26666667 6.26666667,8.68508475 6.26666667,11.6666667 Z" id="Stroke-10" fill="#2FB5C0"></path>
                    <path d="M19.0262266,19.7737734 C18.6357023,19.3832492 18.6357023,18.7500842 19.0262266,18.3595599 C19.4167508,17.9690356 20.0499158,17.9690356 20.4404401,18.3595599 L28.9737734,26.8928932 C29.3642977,27.2834175 29.3642977,27.9165825 28.9737734,28.3071068 C28.5832492,28.6976311 27.9500842,28.6976311 27.5595599,28.3071068 L19.0262266,19.7737734 Z" id="Stroke-12" fill="#2FB5C0"></path>
                </g>
            </g>
        </g>
    </g>
</svg>