<?xml version="1.0" encoding="UTF-8"?>
<svg width="116px" height="117px" viewBox="0 0 116 117" version="1.1" xmlns="http://www.w3.org/2000/svg" xmlns:xlink="http://www.w3.org/1999/xlink">
    <!-- Generator: Sketch 53.2 (72643) - https://sketchapp.com -->
    <title>Images / 1:1 / Corners Copy</title>
    <desc>Created with Sketch.</desc>
    <g id="Symbols" stroke="none" stroke-width="1" fill="none" fill-rule="evenodd">
        <g id="COMP-/-guest-q-quick" transform="translate(-61.000000, -26.000000)">
            <g id="illustration-/-express" transform="translate(60.000000, 24.000000)">
                <path d="M76.3856404,5.16905602 C45.9252557,-4.39286705 13.4814096,12.549056 3.91948652,43.0082868 C-5.64359041,73.4675176 11.2994865,105.913671 41.7587173,115.475594 C72.2202557,125.037518 104.664102,108.095594 114.226025,77.6363637 C123.787948,47.1759791 106.848333,14.7321329 76.3856404,5.16905602" id="Fill-1" fill="#A1D4DB"></path>
                <g id="Group-4" stroke-width="1" transform="translate(11.250000, 38.750000)">
                    <g id="Group-3" transform="translate(26.250000, 0.000000)">
                        <path d="M46.1702128,7.53989362 L58.0002128,7.53989362 C58.9846809,7.53989362 59.9065957,8.02691489 60.4621277,8.84010638 L64.1018677,17.9654255 L58.2651897,19.9671631 L46.1702128,19.9671631 L46.1702128,7.53989362 Z" id="Stroke-1" fill="#FFFFFF"></path>
                        <path d="M46.1702128,7.53989362 L58.0002128,7.53989362 C58.9846809,7.53989362 59.9065957,8.02691489 60.4621277,8.84010638 L65.5319149,17.9654255 L67.0212766,17.9654255 C68.6968085,17.9654255 70,19.0705319 70,21.2554255 L70,31.3652128 C70,33.0094681 68.6655319,34.3484043 67.0212766,34.3484043 L47.6363032,34.3484043" id="Stroke-1" stroke="#472F92" stroke-width="2" stroke-linecap="round"></path>
                        <path d="M45.9375,20.1893362 L61.394866,20.1893362 L66.7885638,19.2918883 C68.4640957,19.2918883 69.7672872,20.324786 69.7672872,22.3669167 L69.7672872,31.8161213 C69.7672872,33.3529394 68.4328191,34.6043883 66.7885638,34.6043883 L45.9375,34.6043883 L45.9375,20.1893362 Z" id="Stroke-1" stroke="#472F92" stroke-width="2" fill="#472F92" stroke-linecap="round"></path>
                        <g id="Group">
                            <polygon id="Stroke-3" stroke="#472F92" stroke-width="2" fill="#FFFFFF" stroke-linecap="round" points="0 7.77156117e-15 46.1702128 3.88578059e-15 46.1702128 35 0 35"></polygon>
                            <polyline id="Stroke-3" stroke="#472F92" stroke-width="2" fill="#E6E7E8" stroke-linecap="round" points="26.1794355 0 45.9375 0 45.9375 35 2.1875 35"></polyline>
                            <g transform="translate(16.250000, 6.250000)">
                                <path d="M2.92882634,2.92875915 C-0.976417556,6.83427136 -0.976417556,13.1660411 2.92882634,17.0710533 C6.83382024,20.9763156 13.1655603,20.9763156 17.0710542,17.0710533 C20.9760481,13.1660411 20.9762981,6.83402136 17.0710542,2.92875915 C13.1658103,-0.976253051 6.83382024,-0.976253051 2.92882634,2.92875915" id="Fill-11" fill="#3B2C78"></path>
                                <path d="M10.8927322,5.18518519 C10.7591014,5.18518519 10.625214,5.12985598 10.5233878,5.01863868 C10.3192224,4.79620408 10.3192224,4.4357259 10.5233878,4.21357075 L11.3310722,3.33333333 L10.5233878,2.45309592 C10.3192224,2.23094076 10.3192224,1.87046259 10.5233878,1.64830743 C10.7270402,1.42587283 11.0581678,1.42587283 11.2620767,1.64830743 L12.439362,2.93093909 C12.6435274,3.15309424 12.6435274,3.51357242 12.439362,3.73572758 L11.2620767,5.01863868 C11.1602505,5.12985598 11.0263631,5.18518519 10.8927322,5.18518519" id="Fill-13" fill="#3CAEB3"></path>
                                <path d="M9.10681319,18.5185185 C8.97318619,18.5185185 8.8393027,18.4629057 8.73747943,18.35168 L7.56022808,17.0695105 C7.35632507,16.8470591 7.35632507,16.4868332 7.56022808,16.2643818 L8.73773592,14.9816534 C8.94163893,14.759202 9.27250042,14.759202 9.47640343,14.9816534 C9.68056292,15.2038253 9.68056292,15.5640512 9.47640343,15.7865026 L8.66874232,16.6668064 L9.47614695,17.5468308 C9.68030644,17.7692821 9.68030644,18.1295081 9.47614695,18.35168 C9.3740672,18.4629057 9.24044019,18.5185185 9.10681319,18.5185185" id="Fill-14" fill="#3CAEB3"></path>
                                <path d="M7.93828991,7.91979531 C8.60380193,7.25324867 9.48480083,6.90399473 10.3791872,6.90399473 C10.913399,6.90399473 11.4525023,7.02874669 11.9527305,7.28495217 C12.1110632,7.36588629 12.1550874,7.50739213 12.1671876,7.58445998 C12.1888135,7.72132628 12.1453042,7.85561507 12.048245,7.95304532 L7.59459221,12.4116392 C7.16052905,11.8219026 6.92624822,11.1117959 6.92624822,10.3653462 C6.92624822,9.44156304 7.285393,8.5731966 7.93828991,7.91979531 Z M17.4694004,8.25796592 C17.3393874,7.81952979 16.9972344,7.4903805 16.5544179,7.37800064 C16.1126312,7.26587852 15.6569421,7.39140374 15.3348704,7.71359372 L13.8882506,9.16112888 C13.7623568,9.2871696 13.7090644,9.468627 13.7466523,9.64312509 C13.9953504,10.7981117 13.6459888,11.9860906 12.8123609,12.8206916 C11.5922985,14.042436 9.68046394,14.1532693 8.32987358,13.1609242 L12.7897052,8.69537104 C13.1220751,8.36287098 13.2768034,7.88628755 13.2031723,7.42078747 C13.1297986,6.95425637 12.8481467,6.56376211 12.430303,6.35008571 C10.6858119,5.45697508 8.58243346,5.78947514 7.19657225,7.17721184 C5.5658747,8.80955517 5.44924919,11.3922301 6.84643827,13.1604087 L5.86426095,14.1439903 C5.74660563,14.2617829 5.6098989,14.2702887 5.5383274,14.2641027 C5.41088892,14.2537926 5.29374851,14.1872926 5.21754288,14.0810988 C3.3875779,11.5391487 3.66845744,8.08372557 5.88485706,5.86473872 C6.98314499,4.7654265 8.44032025,4.10764343 9.98837588,4.0122752 C10.2774939,3.99474806 10.4973574,3.74550189 10.4795933,3.45604641 C10.4618291,3.16659093 10.210299,2.94389322 9.92401302,2.96425562 C8.12030809,3.07508898 6.42267316,3.84138563 5.14339686,5.12215525 C2.56090126,7.70740767 2.23445281,11.7332359 4.3666658,14.695064 C4.62334491,15.051535 5.01982016,15.2757792 5.45439822,15.3108335 C5.49378829,15.3141843 5.53292092,15.3157308 5.57231099,15.3157308 C5.95874563,15.3157308 6.33024809,15.1626261 6.6059786,14.8865737 L7.58043238,13.9109825 C9.34603449,15.309287 11.9241534,15.1948451 13.5540786,13.5630173 C14.5715268,12.5443814 15.0354543,11.1218482 14.8240867,9.70936735 L16.076588,8.45617719 C16.1571703,8.37550082 16.248823,8.38374889 16.2964516,8.39560548 C16.3448524,8.40797757 16.4308412,8.44535161 16.463795,8.55695822 C17.1300794,10.8012048 16.5176024,13.2225269 14.8652789,14.8760059 C13.7682782,15.9750604 12.3108455,16.6328435 10.7620175,16.7287272 C10.4728995,16.7465121 10.253036,16.9955005 10.2708001,17.284956 C10.2880494,17.5633281 10.5189833,17.7777778 10.793684,17.7777778 C10.804497,17.7777778 10.8155674,17.77752 10.8266378,17.7767468 C12.6311151,17.6653979 14.32875,16.8985858 15.607254,15.6185894 C17.5317037,13.6924088 18.2453591,10.8718288 17.4694004,8.25796592 L17.4694004,8.25796592 Z" id="Fill-15" fill="#FFFFFE"></path>
                            </g>
                        </g>
                        <path d="M7.10889214,37.9939033 C8.81842339,42.6860908 14.0104546,45.1098408 18.7015484,43.4003095 C23.3959234,41.6885908 25.8152984,36.4998408 24.1046734,31.804372 C22.3973296,27.1132783 17.2096734,24.6928095 12.5152984,26.4034345 C7.82639214,28.1107783 5.40264214,33.2984345 7.10889214,37.9939033" id="Fill-28" fill="#472F92"></path>
                        <path d="M49.7651421,37.9939033 C51.4746734,42.6860908 56.6667046,45.1098408 61.3577984,43.4003095 C66.0521734,41.6885908 68.4715484,36.4998408 66.7609234,31.804372 C65.0535796,27.1132783 59.8659234,24.6928095 55.1715484,26.4034345 C50.4826421,28.1107783 48.0588921,33.2984345 49.7651421,37.9939033" id="Fill-28-Copy" fill="#472F92"></path>
                        <path d="M11.9624078,36.2261845 C12.6941265,38.2375908 14.9242828,39.2799345 16.9335015,38.5460283 C18.9514703,37.8154033 19.9872515,35.5863408 19.254439,33.5738408 C18.5216265,31.5591533 16.296939,30.5244658 14.2822515,31.258372 C12.2708453,31.988997 11.230689,34.2136845 11.9624078,36.2261845" id="Fill-30" fill="#FFFFFF"></path>
                        <path d="M54.6186578,36.2261845 C55.3503765,38.2375908 57.5805328,39.2799345 59.5897515,38.5460283 C61.6077203,37.8154033 62.6435015,35.5863408 61.910689,33.5738408 C61.1778765,31.5591533 58.953189,30.5244658 56.9385015,31.258372 C54.9270953,31.988997 53.886939,34.2136845 54.6186578,36.2261845" id="Fill-30-Copy" fill="#FFFFFF"></path>
                        <polyline id="Stroke-13" stroke="#472F92" stroke-width="2" stroke-linecap="round" points="46.9614362 19.4547872 59.5744681 19.4547872 62.5531915 17.9654255 66.6256649 17.9654255"></polyline>
                    </g>
                    <g id="Group-2" transform="translate(0.000000, 6.250000)" stroke="#472F92" stroke-linecap="round" stroke-width="2">
                        <path d="M0,22.5 L28.9361702,22.5" id="Stroke-15"></path>
                        <path d="M17.5,11.875 L32.5,11.875" id="Stroke-19"></path>
                        <path d="M26.25,1.02393617 L36.25,1.02393617" id="Stroke-19-Copy"></path>
                        <path d="M12.5,11.875 L7.5,11.875" id="Stroke-21"></path>
                        <path d="M21.25,1.02393617 L16.25,1.02393617" id="Stroke-21-Copy"></path>
                    </g>
                </g>
            </g>
        </g>
    </g>
</svg>