<?xml version="1.0" encoding="UTF-8"?>
<svg width="96px" height="81px" viewBox="0 0 96 81" version="1.1" xmlns="http://www.w3.org/2000/svg" xmlns:xlink="http://www.w3.org/1999/xlink">
    <!-- Generator: Sketch 53.2 (72643) - https://sketchapp.com -->
    <title>UI/logo</title>
    <desc>Created with Sketch.</desc>
    <defs>
        <polygon id="path-1" points="0.222393822 0.192846821 48.5437529 0.192846821 48.5437529 20.0426928 0.222393822 20.0426928"></polygon>
    </defs>
    <g id="Login" stroke="none" stroke-width="1" fill="none" fill-rule="evenodd">
        <g id="Login_DT-1440" transform="translate(-1083.000000, -128.000000)">
            <g id="Group-5" transform="translate(918.000000, 96.000000)">
                <g id="Group-2" transform="translate(53.000000, 32.000000)">
                    <g id="UI/logo-V" transform="translate(112.000000, 0.000000)">
                        <g id="eShipper_Stacked_Primary_CMYK">
                            <path d="M3.00713514,69.6136152 C3.36444788,68.2250438 4.63468726,67.5576972 5.74702703,67.5576972 C6.92793822,67.5576972 7.99616988,68.1830559 8.37572201,69.6136152 L3.00713514,69.6136152 Z M5.74702703,64.9904935 C2.56086486,64.9904935 0,67.3986636 0,70.9078069 C0,74.411005 2.56086486,76.7976238 5.70328958,76.7976238 C8.13071815,76.7976238 10.1115058,75.6832738 11.0915212,73.3631668 L8.4624556,72.8046913 C7.66109653,74.1665094 6.57210811,74.2768669 5.70328958,74.2768669 C4.34409266,74.2768669 3.20691892,73.2918246 2.91891892,71.6858825 L11.3817452,71.6858825 L11.3817452,70.6830047 C11.2694363,67.2879346 8.70931274,64.9904935 5.74702703,64.9904935 L5.74702703,64.9904935 Z" id="Fill-1" fill="#3CAEB3"></path>
                            <path d="M20.5503012,67.8007064 L17.3463475,67.154168 C16.1880463,66.9293658 15.852973,66.3950426 15.852973,65.6355457 C15.852973,64.6326679 16.763305,63.7836217 18.2804015,63.7836217 C19.7704402,63.7836217 20.9969421,64.7002944 21.2197066,66.105215 L24.2472278,65.4798563 C23.6686332,62.8238465 21.3757529,61.1699713 18.3456371,61.1699713 C14.8503475,61.1699713 12.6694054,63.0482771 12.6694054,65.725095 C12.6694054,68.6504958 14.8036448,69.632937 16.5861313,70.0145434 L19.7500541,70.6168646 C21.0873822,70.8829114 21.4891737,71.3953117 21.4891737,72.246959 C21.4891737,73.3163485 20.5736525,74.1445866 18.8374981,74.1445866 C17.1435985,74.1445866 15.8955985,73.4070125 15.4964015,71.7111495 L12.3102394,72.3573164 C12.6909035,75.3484858 15.4319073,76.7976238 18.5469035,76.7976238 C22.0885251,76.7976238 24.4722162,74.9914033 24.4722162,72.0890401 C24.4722162,69.7667036 22.980695,68.3145931 20.5503012,67.8007064" id="Fill-2" fill="#3CAEB3"></path>
                            <path d="M77.4623629,69.6136152 C77.8196757,68.2250438 79.0888031,67.5576972 80.2011429,67.5576972 C81.3846486,67.5576972 82.4528803,68.1830559 82.8313205,69.6136152 L77.4623629,69.6136152 Z M80.2011429,64.9904935 C77.0190579,64.9904935 74.4563398,67.3986636 74.4563398,70.9078069 C74.4563398,74.411005 77.0190579,76.7976238 80.1581467,76.7976238 C82.5874286,76.7976238 84.5689575,75.6832738 85.5486023,73.3631668 L82.9176834,72.8046913 C82.1200309,74.1665094 81.0269653,74.2768669 80.1581467,74.2768669 C78.7989498,74.2768669 77.6662239,73.2918246 77.3737761,71.6858825 L85.8380849,71.6858825 L85.8380849,70.6830047 C85.726888,67.2879346 83.1667645,64.9904935 80.2011429,64.9904935 L80.2011429,64.9904935 Z" id="Fill-3" fill="#3CAEB3"></path>
                            <g id="Group-8" transform="translate(24.463320, 60.194962)">
                                <mask id="mask-2" fill="white">
                                    <use xlink:href="#path-1"></use>
                                </mask>
                                <g id="Clip-5"></g>
                                <path d="M12.7806023,9.48256432 C12.7806023,6.71396766 10.9973745,4.79553194 8.32679537,4.79553194 C6.85603089,4.79553194 5.69847104,5.2618571 4.82928185,6.13356933 L4.82928185,0.192846821 L0.222393822,0.192846821 L0.78430888,1.37742421 C0.966301158,1.76237471 1.46446332,2.07858404 1.88849421,2.07858404 L1.88849421,14.3906831 L1.18276448,14.3906831 L1.18276448,16.2678742 L5.52871042,16.2678742 L5.52871042,14.3906831 L4.82928185,14.3906831 L4.82928185,11.3370893 C4.82928185,8.61308154 5.92234749,7.49575901 7.59215444,7.49575901 C8.94912741,7.49575901 9.8412973,8.5454551 9.8412973,10.1075515 L9.8412973,14.3906831 L9.14186873,14.3906831 L9.14186873,16.2678742 L13.4848494,16.2678742 L13.4848494,14.3906831 L12.7806023,14.3906831 L12.7806023,9.48256432" id="Fill-4" fill="#3CAEB3" mask="url(#mask-2)"></path>
                                <path d="M28.8359537,14.037688 C27.2517683,14.037688 25.6727722,12.7654192 25.6727722,10.7128453 C25.6727722,8.65989984 27.2517683,7.36273558 28.8359537,7.36273558 C30.6151042,7.36273558 31.9531737,8.65989984 31.9531737,10.7128453 C31.9531737,12.7654192 30.6151042,14.037688 28.8359537,14.037688 Z M29.3493127,4.79553194 C27.8344402,4.79553194 26.6075676,5.23956267 25.6727722,6.02209717 L25.6727722,5.1269758 L21.0625483,5.1269758 L21.6281699,6.31415421 C21.8116448,6.69687526 22.3090656,7.00825414 22.7323552,7.00825414 L22.7323552,18.1829657 L22.0281081,18.1829657 L22.0281081,20.0649872 L26.3747954,20.0649872 L26.3747954,18.1829657 L25.6727722,18.1829657 L25.6727722,15.3972767 C26.6075676,16.1608609 27.8344402,16.6026622 29.3493127,16.6026622 C32.1763089,16.6026622 34.8046332,14.2160434 34.8046332,10.7128453 C34.8046332,7.20370198 32.1763089,4.79553194 29.3493127,4.79553194 L29.3493127,4.79553194 Z" id="Fill-6" fill="#3CAEB3" mask="url(#mask-2)"></path>
                                <path d="M42.5721081,14.037688 C40.992,14.037688 39.4118919,12.7654192 39.4118919,10.7128453 C39.4118919,8.65989984 40.992,7.36273558 42.5721081,7.36273558 C44.3527413,7.36273558 45.6911815,8.65989984 45.6911815,10.7128453 C45.6911815,12.7654192 44.3527413,14.037688 42.5721081,14.037688 Z M43.0854672,4.79553194 C41.5713359,4.79553194 40.3463166,5.23956267 39.4118919,6.02209717 L39.4118919,5.1269758 L34.800556,5.1269758 L35.3639537,6.31415421 C35.5503938,6.69687526 36.0455907,7.00825414 36.468139,7.00825414 L36.468139,18.1829657 L35.7650039,18.1829657 L35.7650039,20.0649872 L40.1109498,20.0649872 L40.1109498,18.1829657 L39.4118919,18.1829657 L39.4118919,15.3972767 C40.3463166,16.1608609 41.5713359,16.6026622 43.0854672,16.6026622 C45.9139459,16.6026622 48.5437529,14.2160434 48.5437529,10.7128453 C48.5437529,7.20370198 45.9139459,4.79553194 43.0854672,4.79553194 L43.0854672,4.79553194 Z" id="Fill-7" fill="#3CAEB3" mask="url(#mask-2)"></path>
                            </g>
                            <path d="M94.8657915,65.1655048 C93.060695,65.1655048 91.7674749,66.059883 90.8793822,67.355561 L90.8793822,65.3219374 L86.267305,65.3219374 L86.8351506,66.5091158 C87.0160309,66.8918368 87.5149344,67.2032157 87.9378533,67.2032157 L87.9378533,74.5856447 L87.2358301,74.5856447 L87.2358301,76.4628357 L91.5776988,76.4628357 L91.5776988,74.5856447 L90.8793822,74.5856447 L90.8793822,72.8671157 C90.8793822,69.7667036 92.1247876,68.0931351 94.8424402,68.0931351 L95.4896062,68.0931351 L95.6445405,65.2576551 C95.3769266,65.1655048 95.1541622,65.1655048 94.8657915,65.1655048" id="Fill-9" fill="#3CAEB3"></path>
                            <path d="M42.1944093,63.873171 C43.2192741,63.873171 43.9746718,63.1367116 43.9746718,62.152041 C43.9746718,61.2145602 43.2192741,60.3878084 42.1944093,60.3878084 C41.1487876,60.3878084 40.4122934,61.2145602 40.4122934,62.152041 C40.4122934,63.1367116 41.1487876,63.873171 42.1944093,63.873171" id="Fill-10" fill="#D91F43"></path>
                            <g id="Group-14" transform="translate(20.015444, 0.000000)">
                                <path d="M23.6482471,65.3219374 L19.0383938,65.3219374 L19.6062394,66.5091158 C19.7882317,66.8918368 20.2826873,67.2032157 20.7093127,67.2032157 L20.7093127,74.5856447 L20.0076602,74.5856447 L20.0076602,76.4628357 L24.3502703,76.4628357 L24.3502703,74.5856447 L23.6482471,74.5856447 L23.6482471,65.3219374" id="Fill-11" fill="#3CAEB3"></path>
                                <path d="M8.34644015,8.07838679 C-2.39888803,18.8503123 -2.39888803,36.3139111 8.34644015,47.0850935 C19.0906564,57.8566474 36.5115058,57.8566474 47.2560927,47.0850935 C58.0006795,36.3139111 58.0017915,18.8499407 47.2560927,8.07838679 C36.5118764,-2.6927956 19.0906564,-2.6927956 8.34644015,8.07838679" id="Fill-13" fill="#3B2C78"></path>
                            </g>
                            <path d="M49.6638764,13.7408005 C49.3054517,13.7408005 48.9466564,13.6036897 48.6723707,13.3294683 C48.1256525,12.7806537 48.1256525,11.8918491 48.6723707,11.3430345 L50.8392278,9.17118544 L48.6723707,6.99896479 C48.1256525,6.45015024 48.1256525,5.56171719 48.6723707,5.01290263 C49.2205714,4.46408808 50.1071815,4.46408808 50.6546409,5.01290263 L53.8122625,8.17796858 C54.3589807,8.72678313 54.3589807,9.61558775 53.8122625,10.1644023 L50.6546409,13.3294683 C50.3810965,13.6036897 50.0223012,13.7408005 49.6638764,13.7408005" id="Fill-15" fill="#3CAEB3"></path>
                            <path d="M45.9524942,50.562653 C45.5944402,50.562653 45.2356448,50.4255423 44.9617297,50.1509492 L41.8048494,46.9866264 C41.2581313,46.4378118 41.2581313,45.5486357 41.8048494,45.0001927 L44.962471,41.8351267 C45.5095598,41.2866837 46.3961699,41.2866837 46.9436293,41.8351267 C47.4907181,42.3835697 47.4907181,43.2727459 46.9436293,43.8211889 L44.7767722,45.993038 L46.9432587,48.1645155 C47.4903475,48.7137016 47.4903475,49.6025062 46.9432587,50.1509492 C46.668973,50.4255423 46.3105483,50.562653 45.9524942,50.562653" id="Fill-16" fill="#3CAEB3"></path>
                            <path d="M47.8269035,18.3093008 C45.4372819,18.3093008 43.0832432,19.2434374 41.3052046,21.0266203 C38.0426873,24.2960985 37.7372664,29.4238174 40.3882008,33.0429466 L52.2858996,21.1150549 C52.5453591,20.8545816 52.6621158,20.4952697 52.6042934,20.1288979 C52.5716757,19.923046 52.4541776,19.5444122 52.032,19.3277847 C50.6950425,18.6426025 49.2543012,18.3093008 47.8269035,18.3093008 Z M48.9344247,47.3987018 C48.2001544,47.3987018 47.5833822,46.8257349 47.5377915,46.0807294 C47.4892355,45.3063695 48.0770965,44.6405092 48.8502857,44.591833 C52.9875521,44.3358186 56.881668,42.5756734 59.8135598,39.6361528 C64.2273359,35.2125662 65.8641544,28.7349195 64.0835212,22.7310295 C63.9941931,22.4319125 63.7651274,22.3323307 63.636139,22.2996322 C63.5093745,22.2687916 63.265112,22.2446393 63.0490193,22.4612669 L59.7031042,25.813606 C60.2672432,29.5928835 59.0277683,33.3977996 56.3090039,36.1236653 C54.037251,38.4017845 51.0156602,39.6562177 47.8028108,39.6562177 C45.060695,39.6569609 42.4594286,38.7432608 40.3429807,37.0604029 L37.7457915,39.6636492 C36.9344247,40.4773959 35.8146718,40.8965312 34.6682317,40.7988073 C33.5073359,40.7055423 32.4487413,40.1054505 31.763027,39.151992 C26.065668,31.2285516 26.9389344,20.4581123 33.8379614,13.5420085 C37.2557838,10.1160977 41.7915058,8.06612485 46.6104093,7.76923736 C47.3902703,7.71833174 48.0470734,8.31099201 48.094888,9.08498031 C48.1427027,9.85896862 47.555583,10.5259437 46.7827645,10.572762 C42.6473514,10.8280332 38.7539768,12.5878069 35.8194903,15.5280706 C29.8971429,21.4658206 29.1465637,30.7094629 34.0358919,37.508521 C34.2401236,37.792775 34.5529575,37.9718735 34.8935907,37.9989984 C35.0844788,38.0127467 35.4499459,37.9923101 35.7646332,37.6772155 L38.389251,35.0464727 C34.6552587,30.3155946 34.967722,23.4065507 39.3240463,19.0405581 C43.0269035,15.3263061 48.6475367,14.4363867 53.3066873,16.8270928 C54.4227336,17.3993165 55.1759073,18.4430674 55.3723552,19.6911839 C55.5680618,20.9366994 55.1547799,22.2115692 54.2674286,23.101117 L42.3423012,35.0565052 C43.9153668,36.2195313 45.8109035,36.8478627 47.8028108,36.8471195 C50.2665637,36.8471195 52.5846486,35.8847433 54.3274749,34.1372315 C56.554749,31.9040728 57.4876911,28.7263733 56.8238456,25.6367369 C56.7226564,25.1696686 56.8661004,24.6843931 57.2026564,24.3466325 L61.067861,20.4744616 C61.9277838,19.6124103 63.1479846,19.2791085 64.3255598,19.5767392 C65.508695,19.877714 66.4223629,20.7579724 66.7700386,21.9314026 C68.8434903,28.9240506 66.9360927,36.4692289 61.7939768,41.6229581 C58.3794903,45.0466394 53.8433977,47.097727 49.0218996,47.3957292 C48.9933591,47.3979586 48.9629653,47.3987018 48.9344247,47.3987018 L48.9344247,47.3987018 Z" id="Fill-17" fill="#FFFFFE"></path>
                        </g>
                    </g>
                </g>
            </g>
        </g>
    </g>
</svg>