<?xml version="1.0" encoding="UTF-8"?>
<svg width="167px" height="138px" viewBox="0 0 167 138" version="1.1" xmlns="http://www.w3.org/2000/svg" xmlns:xlink="http://www.w3.org/1999/xlink">
    <!-- Generator: Sketch 54.1 (76490) - https://sketchapp.com -->
    <title>illustration / segment</title>
    <desc>Created with Sketch.</desc>
    <g id="Work-Order" stroke="none" stroke-width="1" fill="none" fill-rule="evenodd">
        <g id="FAB_segments" transform="translate(-594.000000, -267.000000)">
            <g id="Group" transform="translate(509.000000, 244.000000)">
                <g id="illustration-/-segment" transform="translate(68.000000, 0.000000)">
                    <g id="Group-8" transform="translate(40.250000, 99.666667)" fill="#31B5C1">
                        <path d="M-2.22044605e-16,48.875 C-1.05854577,48.875 -1.91666667,48.0168791 -1.91666667,46.9583333 C-1.91666667,45.8997876 -1.05854577,45.0416667 -2.22044605e-16,45.0416667 L141.833333,45.0416667 C142.891879,45.0416667 143.75,45.8997876 143.75,46.9583333 C143.75,48.0168791 142.891879,48.875 141.833333,48.875 L-2.22044605e-16,48.875 Z" id="Stroke-4" fill-rule="nonzero"></path>
                        <path d="M101.583333,47.9166667 C100.524788,47.9166667 99.6666667,47.0585458 99.6666667,46 L99.6666667,24.9166667 C99.6666667,23.8581209 100.524788,23 101.583333,23 L111.166667,23 C112.225212,23 113.083333,23.8581209 113.083333,24.9166667 L113.083333,46 C113.083333,47.0585458 112.225212,47.9166667 111.166667,47.9166667 L101.583333,47.9166667 Z M103.5,44.0833333 L109.25,44.0833333 L109.25,26.8333333 L103.5,26.8333333 L103.5,44.0833333 Z" id="Stroke-6" fill-rule="nonzero"></path>
                        <path d="M115,11.5 C116.170951,11.5 117.068213,12.5407483 116.895768,13.6989322 L115.183506,25.1989322 C115.043669,26.1381097 114.237268,26.8333333 113.287737,26.8333333 L99.460443,26.8333333 C98.5107997,26.8333333 97.7043387,26.1379492 97.5646311,25.1986387 L95.8541881,13.6986387 C95.6819402,12.5405465 96.5791683,11.5 97.75,11.5 L115,11.5 Z M99.9728247,15.3333333 L101.11312,23 L111.635319,23 L112.776827,15.3333333 L99.9728247,15.3333333 Z" id="Stroke-8" fill-rule="nonzero"></path>
                        <path d="M101.583333,15.3333333 C100.524788,15.3333333 99.6666667,14.4752124 99.6666667,13.4166667 L99.6666667,5.75 C99.6666667,4.69145423 100.524788,3.83333333 101.583333,3.83333333 L111.166667,3.83333333 C112.225212,3.83333333 113.083333,4.69145423 113.083333,5.75 L113.083333,13.4166667 C113.083333,14.4752124 112.225212,15.3333333 111.166667,15.3333333 L101.583333,15.3333333 Z M103.5,11.5 L109.25,11.5 L109.25,7.66666667 L103.5,7.66666667 L103.5,11.5 Z" id="Stroke-9" fill-rule="nonzero"></path>
                        <path d="M108.291667,3.83333333 C108.291667,4.8918791 107.433546,5.75 106.375,5.75 C105.316454,5.75 104.458333,4.8918791 104.458333,3.83333333 L104.458333,0 C104.458333,-1.05854577 105.316454,-1.91666667 106.375,-1.91666667 C107.433546,-1.91666667 108.291667,-1.05854577 108.291667,0 L108.291667,3.83333333 Z" id="Stroke-10" fill-rule="nonzero"></path>
                    </g>
                    <g id="Truck" transform="translate(19.166667, 116.916667)">
                        <path d="M62.0952526,20.8789367 L54.9056631,14.4529935 C54.2657713,13.8828344 53.0485057,13.4166667 52.1806064,13.4166667 L42.1666667,13.4166667 L42.1666667,36.4166667 L61.6833682,36.4166667 C62.5439124,36.4166667 63.25,35.7317587 63.25,34.8890708 L63.25,23.4464453 C63.25,22.6073433 62.7314669,21.4526816 62.0952526,20.8789367" id="Fill-1" fill="#472F92"></path>
                        <path d="M40.7909295,0 L1.37896658,0 C0.623279978,0 0,0.631731117 0,1.41152421 L0,35.0183035 C0,35.7849355 0.623279978,36.4166667 1.37896658,36.4166667 L42.1666667,36.4166667 L42.1666667,1.41152421 C42.1666667,0.631731117 41.5498455,0 40.7909295,0" id="Fill-3" fill="#E6E7E8"></path>
                        <polygon id="Fill-5" fill="#FFFFFF" points="0 0 0 34.5 42.1666667 0"></polygon>
                        <path d="M61.3333333,34.5 L61.3333333,24.519064 C61.3333333,24.2896357 61.0896741,23.7452847 60.9140169,23.5874882 L54.3395203,17.6972889 C54.1039377,17.4882027 53.4387717,17.2361462 53.1173426,17.2361462 L45.867489,17.2361462 L45.867489,34.5 L61.3333333,34.5 Z M45.867489,13.4028129 L53.1173426,13.4028129 C54.3756211,13.4028129 55.9463283,13.998013 56.8907492,14.8362408 L63.4738208,20.7340969 C64.459261,21.6193256 65.1666667,23.199717 65.1666667,24.519064 L65.1666667,35.011723 C65.1666667,36.8534096 63.6525297,38.3333333 61.8125765,38.3333333 L1.43069083,38.3333333 C-0.404929132,38.3333333 -1.91666667,36.8509652 -1.91666667,35.011723 L-1.91666667,1.40823395 C-1.91666667,-0.433079902 -0.406126606,-1.91666667 1.43069083,-1.91666667 L42.5167651,-1.91666667 C44.3557475,-1.91666667 45.867489,-0.434302522 45.867489,1.40823395 L45.867489,13.4028129 Z M42.0341556,1.91666667 L1.91666667,1.91666667 L1.91666667,34.5 L42.0341556,34.5 L42.0341556,1.91666667 Z" id="Stroke-7" fill="#472F92" fill-rule="nonzero"></path>
                        <path d="M21.0833333,37.3732425 C21.0833333,41.0780281 18.0823293,44.0833333 14.3714859,44.0833333 C10.6676707,44.0833333 7.66666667,41.0780281 7.66666667,37.3732425 C7.66666667,33.6649419 10.6676707,30.6666667 14.3714859,30.6666667 C18.0823293,30.6666667 21.0833333,33.6649419 21.0833333,37.3732425" id="Fill-9" fill="#472F92"></path>
                        <path d="M59.4166667,37.3732425 C59.4166667,41.0780281 56.4113615,44.0833333 52.7065758,44.0833333 C49.0017902,44.0833333 46,41.0780281 46,37.3732425 C46,33.6649419 49.0017902,30.6666667 52.7065758,30.6666667 C56.4113615,30.6666667 59.4166667,33.6649419 59.4166667,37.3732425" id="Fill-11" fill="#472F92"></path>
                    </g>
                    <g id="Flight" transform="translate(70.916667, 23.000000)">
                        <path d="M56.8203091,40.25 L64.9131632,40.25 L69.5811214,40.25 C70.5587381,40.25 72.1287518,40.0565279 73.07076,39.816248 L78.7875521,37.8659243 C79.723086,37.6318855 80.5,36.670766 80.5,35.7283696 L80.5,34.3054134 C80.5,33.363017 79.7586946,32.3270051 78.8393464,32.0055917 L68.1503048,27.5307691 C67.2277194,27.2031147 65.6836029,26.9534733 64.7092232,26.9534733 L23.5360191,26.9534733 C22.6425681,26.9534733 21.4189285,26.4323468 20.8168202,25.7988817 L10.1795729,14.5712583 C9.57746453,13.9346726 8.35058786,13.4166667 7.46361106,13.4166667 L1.1026278,13.4166667 C0.209176717,13.4166667 -0.231074542,14.0688549 0.121773893,14.8521049 L8.09161653,32.7513955 C8.44770211,33.5440071 9.2408018,34.6985987 9.86233299,35.3133407 L13.6951087,39.123493 C14.3134027,39.7413556 15.5564651,40.25 16.446679,40.25 L56.8203091,40.25 Z" id="Fill-13" fill="#E6E7E8"></path>
                        <path d="M40.275506,2.10423911 C39.6000246,0.946907601 37.9159477,0 36.5248878,0 L33.0271896,0 C31.6330454,0 30.5689309,1.07687531 30.6738001,2.39202476 L32.4226492,24.9166667 L55.5833333,24.9011943 L40.275506,2.10423911 Z" id="Fill-15" fill="#472F92"></path>
                        <path d="M16.446679,42.1666667 C15.0508639,42.1666667 13.3198023,41.458079 12.3438383,40.4827868 L8.51450807,36.6760509 C7.72911098,35.8992329 6.79861463,34.5503749 6.34067494,33.5310202 L-1.62575328,15.6393532 C-2.56094646,13.5634192 -1.15631984,11.5 1.1026278,11.5 L7.46361106,11.5 C8.87661168,11.5 10.607239,12.2341521 11.5709481,13.253045 L22.2060558,24.4784138 C22.4454973,24.7303249 23.1666256,25.0368066 23.5360191,25.0368066 L64.7092232,25.0368066 C65.917836,25.0368066 67.6764248,25.3285187 68.8904506,25.7627772 L79.4718894,30.19631 C81.1522899,30.7837948 82.4166667,32.5397575 82.4166667,34.3054134 L82.4166667,35.7283696 C82.4166667,37.5584059 81.0338308,39.2797136 79.4064133,39.6799315 L73.5444802,41.6734503 C72.4510991,41.9523412 70.7221914,42.1666667 69.5811214,42.1666667 L16.446679,42.1666667 Z M2.43412244,15.3333333 L9.83995245,31.9659449 C10.1031086,32.5517046 10.7631441,33.5084995 11.2136034,33.954047 L15.0499235,37.767732 C15.3066859,38.0243152 16.0616091,38.3333333 16.446679,38.3333333 L69.5811214,38.3333333 C70.4046098,38.3333333 71.8152216,38.1584656 72.4518988,38.0022409 L78.3224015,36.0065572 C78.4183305,35.982559 78.5833333,35.7771691 78.5833333,35.7283696 L78.5833333,34.3054134 C78.5833333,34.1797873 78.3588548,33.8680322 78.0992005,33.7735836 L67.5088564,29.3369128 C66.8133266,29.0898968 65.4885208,28.8701399 64.7092232,28.8701399 L23.5360191,28.8701399 C22.1210424,28.8701399 20.3940757,28.136174 19.425445,27.1170949 L8.7871016,15.8883137 C8.55155907,15.6392837 7.83033775,15.3333333 7.46361106,15.3333333 L2.43412244,15.3333333 Z" id="Stroke-17" fill="#472F92" fill-rule="nonzero"></path>
                        <path d="M30.8370896,37.9286706 L28.7569818,64.6427275 C28.6520223,65.9782725 29.7429656,67.0833333 31.1869548,67.0833333 L34.7905666,67.0833333 C36.2281946,67.0833333 37.9616177,66.1140371 38.654987,64.9332006 L57.5,32.5833333 L31.2569279,32.5833333 L30.8370896,37.9286706" id="Fill-19" fill="#472F92"></path>
                    </g>
                </g>
            </g>
        </g>
    </g>
</svg>