<?xml version="1.0" encoding="UTF-8"?>
<svg width="116px" height="117px" viewBox="0 0 116 117" version="1.1" xmlns="http://www.w3.org/2000/svg" xmlns:xlink="http://www.w3.org/1999/xlink">
    <!-- Generator: Sketch 53.2 (72643) - https://sketchapp.com -->
    <title>Images / 1:1 / Corners Copy</title>
    <desc>Created with Sketch.</desc>
    <g id="Symbols" stroke="none" stroke-width="1" fill="none" fill-rule="evenodd">
        <g id="COMP-/-guest-q-quick_clp" transform="translate(-61.000000, -26.000000)">
            <g id="illustration-/-standard" transform="translate(60.000000, 24.000000)">
                <path d="M76.3856404,5.16905602 C45.9252557,-4.39286705 13.4814096,12.549056 3.91948652,43.0082868 C-5.64359041,73.4675176 11.2994865,105.913671 41.7587173,115.475594 C72.2202557,125.037518 104.664102,108.095594 114.226025,77.6363637 C123.787948,47.1759791 106.848333,14.7321329 76.3856404,5.16905602" id="Fill-1" fill="#A1D4DB"></path>
                <g id="Group-2" stroke-width="1" transform="translate(18.750000, 27.500000)">
                    <path d="M39.0594304,16.4283369 C38.3872234,16.6742373 37.5925908,17.4107949 37.2899277,18.0638607 L33.2147437,26.8831082 C32.9132141,27.5373177 32.8667377,28.6261419 33.1104552,29.3020822 L44.0029289,59.4986549 C44.2466465,60.1757389 44.9959362,60.5280056 45.6681432,60.2809614 L75.59439,49.2932152 C76.266597,49.0473148 77.0623631,48.3107572 77.3638927,47.6576914 L81.4436109,38.8361565 C81.744007,38.1842344 81.7927505,37.0954102 81.5478994,36.4194699 L70.6531586,6.22175345 C70.409441,5.54466948 69.6612848,5.19240281 68.9890779,5.43830324 L39.0594304,16.4283369 Z" id="Fill-18" fill="#FFFFFF"></path>
                    <path d="M76.6260972,47.6307901 C76.8716864,48.3058757 76.5187232,49.0609206 75.8424961,49.3076524 L45.6852773,60.2815053 C45.0079079,60.5270948 44.254006,60.1764158 44.0084167,59.5013303 L33.0334325,29.3417969 C32.7855587,28.6667113 33.1396642,27.9116663 33.8147491,27.6649346 L63.9719678,16.6887971 C64.6493372,16.4420654 65.4043814,16.7938866 65.6488284,17.4701144 L76.6260972,47.6307901 Z" id="Fill-19" fill="#E6E7E8"></path>
                    <path d="M78.8898035,54.6533333 L37.4812321,69.7247619 L12.1040893,0 L2.16408926,3.61809524 C0.582184496,4.19428571 -0.235910742,5.94380952 0.342184496,7.52666667 C0.918374972,9.10666667 2.67075592,9.92380952 4.25170831,9.34857143" id="Stroke-29" stroke="#472F92" stroke-width="2" stroke-linecap="round" stroke-linejoin="round"></path>
                    <g id="Group" transform="translate(28.353653, 60.596967)">
                        <path d="M0.585563111,13.0097994 C2.41765102,18.0383709 7.98190011,20.63588 13.0092994,18.8037921 C18.0402151,16.9693599 20.6330356,11.4086273 18.7997756,6.37653935 C16.970032,1.34914008 11.4104715,-1.24485259 6.37955578,0.588407483 C1.35450084,2.41815107 -1.24300832,7.97771151 0.585563111,13.0097994" id="Fill-28" fill="#472F92"></path>
                        <path d="M5.78702831,11.1153525 C6.57120414,13.2709569 8.96124077,14.3880265 11.1145008,13.6015064 C13.2771382,12.8185027 14.3871748,10.4296383 13.6018268,8.2728617 C12.8164789,6.11374082 10.432303,5.00487635 8.27318216,5.79139649 C6.11757776,6.57440016 5.00285249,8.95857598 5.78702831,11.1153525" id="Fill-30" fill="#FFFFFF"></path>
                    </g>
                </g>
                <g id="Group" stroke-width="1" transform="translate(63.750000, 55.000000)">
                    <path d="M2.92882634,2.92875915 C-0.976417556,6.83427136 -0.976417556,13.1660411 2.92882634,17.0710533 C6.83382024,20.9763156 13.1655603,20.9763156 17.0710542,17.0710533 C20.9760481,13.1660411 20.9762981,6.83402136 17.0710542,2.92875915 C13.1658103,-0.976253051 6.83382024,-0.976253051 2.92882634,2.92875915" id="Fill-11" fill="#3B2C78"></path>
                    <path d="M10.8927322,5.18518519 C10.7591014,5.18518519 10.625214,5.12985598 10.5233878,5.01863868 C10.3192224,4.79620408 10.3192224,4.4357259 10.5233878,4.21357075 L11.3310722,3.33333333 L10.5233878,2.45309592 C10.3192224,2.23094076 10.3192224,1.87046259 10.5233878,1.64830743 C10.7270402,1.42587283 11.0581678,1.42587283 11.2620767,1.64830743 L12.439362,2.93093909 C12.6435274,3.15309424 12.6435274,3.51357242 12.439362,3.73572758 L11.2620767,5.01863868 C11.1602505,5.12985598 11.0263631,5.18518519 10.8927322,5.18518519" id="Fill-13" fill="#3CAEB3"></path>
                    <path d="M9.10681319,18.5185185 C8.97318619,18.5185185 8.8393027,18.4629057 8.73747943,18.35168 L7.56022808,17.0695105 C7.35632507,16.8470591 7.35632507,16.4868332 7.56022808,16.2643818 L8.73773592,14.9816534 C8.94163893,14.759202 9.27250042,14.759202 9.47640343,14.9816534 C9.68056292,15.2038253 9.68056292,15.5640512 9.47640343,15.7865026 L8.66874232,16.6668064 L9.47614695,17.5468308 C9.68030644,17.7692821 9.68030644,18.1295081 9.47614695,18.35168 C9.3740672,18.4629057 9.24044019,18.5185185 9.10681319,18.5185185" id="Fill-14" fill="#3CAEB3"></path>
                    <path d="M7.93828991,7.91979531 C8.60380193,7.25324867 9.48480083,6.90399473 10.3791872,6.90399473 C10.913399,6.90399473 11.4525023,7.02874669 11.9527305,7.28495217 C12.1110632,7.36588629 12.1550874,7.50739213 12.1671876,7.58445998 C12.1888135,7.72132628 12.1453042,7.85561507 12.048245,7.95304532 L7.59459221,12.4116392 C7.16052905,11.8219026 6.92624822,11.1117959 6.92624822,10.3653462 C6.92624822,9.44156304 7.285393,8.5731966 7.93828991,7.91979531 Z M17.4694004,8.25796592 C17.3393874,7.81952979 16.9972344,7.4903805 16.5544179,7.37800064 C16.1126312,7.26587852 15.6569421,7.39140374 15.3348704,7.71359372 L13.8882506,9.16112888 C13.7623568,9.2871696 13.7090644,9.468627 13.7466523,9.64312509 C13.9953504,10.7981117 13.6459888,11.9860906 12.8123609,12.8206916 C11.5922985,14.042436 9.68046394,14.1532693 8.32987358,13.1609242 L12.7897052,8.69537104 C13.1220751,8.36287098 13.2768034,7.88628755 13.2031723,7.42078747 C13.1297986,6.95425637 12.8481467,6.56376211 12.430303,6.35008571 C10.6858119,5.45697508 8.58243346,5.78947514 7.19657225,7.17721184 C5.5658747,8.80955517 5.44924919,11.3922301 6.84643827,13.1604087 L5.86426095,14.1439903 C5.74660563,14.2617829 5.6098989,14.2702887 5.5383274,14.2641027 C5.41088892,14.2537926 5.29374851,14.1872926 5.21754288,14.0810988 C3.3875779,11.5391487 3.66845744,8.08372557 5.88485706,5.86473872 C6.98314499,4.7654265 8.44032025,4.10764343 9.98837588,4.0122752 C10.2774939,3.99474806 10.4973574,3.74550189 10.4795933,3.45604641 C10.4618291,3.16659093 10.210299,2.94389322 9.92401302,2.96425562 C8.12030809,3.07508898 6.42267316,3.84138563 5.14339686,5.12215525 C2.56090126,7.70740767 2.23445281,11.7332359 4.3666658,14.695064 C4.62334491,15.051535 5.01982016,15.2757792 5.45439822,15.3108335 C5.49378829,15.3141843 5.53292092,15.3157308 5.57231099,15.3157308 C5.95874563,15.3157308 6.33024809,15.1626261 6.6059786,14.8865737 L7.58043238,13.9109825 C9.34603449,15.309287 11.9241534,15.1948451 13.5540786,13.5630173 C14.5715268,12.5443814 15.0354543,11.1218482 14.8240867,9.70936735 L16.076588,8.45617719 C16.1571703,8.37550082 16.248823,8.38374889 16.2964516,8.39560548 C16.3448524,8.40797757 16.4308412,8.44535161 16.463795,8.55695822 C17.1300794,10.8012048 16.5176024,13.2225269 14.8652789,14.8760059 C13.7682782,15.9750604 12.3108455,16.6328435 10.7620175,16.7287272 C10.4728995,16.7465121 10.253036,16.9955005 10.2708001,17.284956 C10.2880494,17.5633281 10.5189833,17.7777778 10.793684,17.7777778 C10.804497,17.7777778 10.8155674,17.77752 10.8266378,17.7767468 C12.6311151,17.6653979 14.32875,16.8985858 15.607254,15.6185894 C17.5317037,13.6924088 18.2453591,10.8718288 17.4694004,8.25796592 L17.4694004,8.25796592 Z" id="Fill-15" fill="#FFFFFE"></path>
                </g>
            </g>
        </g>
    </g>
</svg>