<?xml version="1.0" encoding="UTF-8"?>
<svg width="62px" height="66px" viewBox="0 0 62 66" version="1.1" xmlns="http://www.w3.org/2000/svg" xmlns:xlink="http://www.w3.org/1999/xlink">
    <!-- Generator: Sketch 53.2 (72643) - https://sketchapp.com -->
    <title>Images / 1:1 / Corners</title>
    <desc>Created with Sketch.</desc>
    <g id="Tracking" stroke="none" stroke-width="1" fill="none" fill-rule="evenodd">
        <g id="Dialog_Export" transform="translate(-93.000000, -80.000000)">
            <g id="IC-/-CSV" transform="translate(88.000000, 73.000000)">
                <g id="Group-2" transform="translate(5.000000, 7.500000)">
                    <g id="Group" transform="translate(8.750000, 0.000000)" fill="#472F92" fill-rule="nonzero">
                        <path d="M2.5,62.5 L50,62.5 L50,15.6324692 L36.4732009,15.6324692 L36.4732009,2.5 L2.5,2.5 L2.5,62.5 Z M38.9732009,13.1324692 L52.5,13.1324692 L52.5,65 L0,65 L0,0 L38.9732009,1.4849233e-14 L38.9732009,13.1324692 Z" id="Stroke-1-Copy"></path>
                        <path d="M37.8661165,2.13388348 C37.3779612,1.64572811 37.3779612,0.854271888 37.8661165,0.366116524 C38.3542719,-0.122038841 39.1457281,-0.122038841 39.6338835,0.366116524 L52.0082521,12.7404852 C52.4964075,13.2286406 52.4964075,14.0200968 52.0082521,14.5082521 C51.5200968,14.9964075 50.7286406,14.9964075 50.2404852,14.5082521 L37.8661165,2.13388348 Z" id="Line"></path>
                    </g>
                    <rect id="Rectangle" fill="#2FB5C0" x="0" y="28.75" width="50" height="25"></rect>
                    <path d="M19.0441895,43.1604004 C18.9099114,44.5825266 18.3850143,45.6918295 17.4694824,46.4883423 C16.5539505,47.2848551 15.3363113,47.6831055 13.8165283,47.6831055 C12.7545113,47.6831055 11.8191569,47.431338 11.010437,46.9277954 C10.2017171,46.4242529 9.57763892,45.7086228 9.13818359,44.7808838 C8.69872827,43.8531448 8.46984872,42.775885 8.45153809,41.5490723 L8.45153809,40.3039551 C8.45153809,39.0466246 8.67431418,37.9388476 9.11987305,36.9805908 C9.56543192,36.0223341 10.2047688,35.2838161 11.0379028,34.7650146 C11.8710369,34.2462132 12.8338568,33.9868164 13.9263916,33.9868164 C15.3973462,33.9868164 16.5814164,34.3865927 17.4786377,35.1861572 C18.375859,35.9857218 18.8977043,37.1148609 19.0441895,38.5736084 L16.7370605,38.5736084 C16.6271967,37.6153517 16.3479637,36.9241354 15.899353,36.499939 C15.4507424,36.0757425 14.7930952,35.8636475 13.9263916,35.8636475 C12.9193065,35.8636475 12.1456936,36.2313806 11.6055298,36.9668579 C11.065366,37.7023352 10.7891846,38.7811208 10.7769775,40.2032471 L10.7769775,41.3842773 C10.7769775,42.8247142 11.0348485,43.9233361 11.5505981,44.6801758 C12.0663478,45.4370155 12.8216503,45.8154297 13.8165283,45.8154297 C14.7259567,45.8154297 15.4095436,45.610964 15.8673096,45.2020264 C16.3250755,44.7930888 16.6149896,44.1125536 16.7370605,43.1604004 L19.0441895,43.1604004 Z M28.2562256,44.0667725 C28.2562256,43.480832 28.050234,43.0291764 27.6382446,42.711792 C27.2262553,42.3944076 26.4831597,42.0739762 25.4089355,41.7504883 C24.3347114,41.4270003 23.4802278,41.0668965 22.845459,40.670166 C21.6308533,39.9072227 21.0235596,38.9123596 21.0235596,37.6855469 C21.0235596,36.6113228 21.4614824,35.7263218 22.3373413,35.0305176 C23.2132002,34.3347133 24.3499686,33.9868164 25.7476807,33.9868164 C26.6754197,33.9868164 27.5024378,34.1577131 28.2287598,34.4995117 C28.9550818,34.8413103 29.5257548,35.3280608 29.9407959,35.9597778 C30.355837,36.5914949 30.5633545,37.2918663 30.5633545,38.0609131 L28.2562256,38.0609131 C28.2562256,37.3651088 28.0380271,36.8203755 27.6016235,36.4266968 C27.16522,36.0330181 26.5411418,35.8361816 25.7293701,35.8361816 C24.9725304,35.8361816 24.3850729,35.9979232 23.96698,36.3214111 C23.5488871,36.6448991 23.3398438,37.0965547 23.3398438,37.6763916 C23.3398438,38.1646753 23.5656716,38.5720809 24.017334,38.8986206 C24.4689964,39.2251603 25.2136179,39.54254 26.2512207,39.850769 C27.2888235,40.1589981 28.1219451,40.5099468 28.7506104,40.9036255 C29.3792756,41.2973042 29.8400864,41.7489599 30.1330566,42.258606 C30.4260269,42.7682521 30.5725098,43.3648647 30.5725098,44.0484619 C30.5725098,45.1593073 30.1467938,46.0427824 29.2953491,46.6989136 C28.4439044,47.3550448 27.2888257,47.6831055 25.8300781,47.6831055 C24.8657178,47.6831055 23.9791911,47.5045794 23.1704712,47.147522 C22.3617513,46.7904645 21.7330955,46.2976106 21.2844849,45.6689453 C20.8358742,45.0402801 20.6115723,44.3078655 20.6115723,43.4716797 L22.9278564,43.4716797 C22.9278564,44.2285194 23.1780981,44.814451 23.6785889,45.2294922 C24.1790797,45.6445333 24.8962356,45.8520508 25.8300781,45.8520508 C26.6357462,45.8520508 27.2415141,45.6887834 27.6473999,45.3622437 C28.0532857,45.0357039 28.2562256,44.6038845 28.2562256,44.0667725 Z M37.477417,44.5977783 L40.8648682,34.1699219 L43.4100342,34.1699219 L38.6126709,47.5 L36.3696289,47.5 L31.5905762,34.1699219 L34.1265869,34.1699219 L37.477417,44.5977783 Z" id="CSV" fill="#FFFFFF" fill-rule="nonzero"></path>
                </g>
            </g>
        </g>
    </g>
</svg>