<?xml version="1.0" encoding="UTF-8"?>
<svg width="62px" height="66px" viewBox="0 0 62 66" version="1.1" xmlns="http://www.w3.org/2000/svg" xmlns:xlink="http://www.w3.org/1999/xlink">
    <!-- Generator: Sketch 53.2 (72643) - https://sketchapp.com -->
    <title>Images / 1:1 / Corners Copy</title>
    <desc>Created with Sketch.</desc>
    <g id="Tracking" stroke="none" stroke-width="1" fill="none" fill-rule="evenodd">
        <g id="Dialog_Export" transform="translate(-237.000000, -80.000000)">
            <g id="IC-/-PDF" transform="translate(232.000000, 73.000000)">
                <g id="Group-2" transform="translate(5.000000, 8.750000)">
                    <g id="Group" transform="translate(10.000000, 0.000000)" fill="#472F92" fill-rule="nonzero">
                        <path d="M1.25,61.25 L48.75,61.25 L48.75,14.3824692 L35.2232009,14.3824692 L35.2232009,1.25 L1.25,1.25 L1.25,61.25 Z M37.7232009,11.8824692 L51.25,11.8824692 L51.25,63.75 L-1.25,63.75 L-1.25,-1.25 L37.7232009,-1.25 L37.7232009,11.8824692 Z" id="Stroke-1-Copy"></path>
                        <path d="M36.6161165,0.883883476 C36.1279612,0.395728112 36.1279612,-0.395728112 36.6161165,-0.883883476 C37.1042719,-1.37203884 37.8957281,-1.37203884 38.3838835,-0.883883476 L50.7582521,11.4904852 C51.2464075,11.9786406 51.2464075,12.7700968 50.7582521,13.2582521 C50.2700968,13.7464075 49.4786406,13.7464075 48.9904852,13.2582521 L36.6161165,0.883883476 Z" id="Line"></path>
                    </g>
                    <rect id="Rectangle" fill="#DF0E14" x="0" y="27.5" width="50" height="25"></rect>
                    <path d="M11.7657471,41.2969971 L11.7657471,46.25 L9.44946289,46.25 L9.44946289,32.9199219 L14.5489502,32.9199219 C16.0382155,32.9199219 17.2207598,33.3074912 18.0966187,34.0826416 C18.9724775,34.857792 19.4104004,35.8831723 19.4104004,37.1588135 C19.4104004,38.4649724 18.9816327,39.4811975 18.1240845,40.2075195 C17.2665362,40.9338415 16.0656815,41.2969971 14.5214844,41.2969971 L11.7657471,41.2969971 Z M11.7657471,39.4384766 L14.5489502,39.4384766 C15.3729289,39.4384766 16.0015847,39.2446919 16.4349365,38.8571167 C16.8682883,38.4695415 17.0849609,37.9095496 17.0849609,37.177124 C17.0849609,36.4569056 16.8652366,35.881655 16.4257812,35.451355 C15.9863259,35.021055 15.3820839,34.7998047 14.6130371,34.7875977 L11.7657471,34.7875977 L11.7657471,39.4384766 Z M21.6094971,46.25 L21.6094971,32.9199219 L25.5462646,32.9199219 C26.7242491,32.9199219 27.7694657,33.1823704 28.6819458,33.7072754 C29.5944259,34.2321804 30.3009008,34.9768018 30.8013916,35.9411621 C31.3018824,36.9055224 31.552124,38.0102477 31.552124,39.2553711 L31.552124,39.9237061 C31.552124,41.1871401 31.3003565,42.2979688 30.796814,43.2562256 C30.2932714,44.2144823 29.5761155,44.9530003 28.6453247,45.4718018 C27.7145339,45.9906032 26.6479552,46.25 25.4455566,46.25 L21.6094971,46.25 Z M23.9257812,34.7875977 L23.9257812,44.4006348 L25.4364014,44.4006348 C26.651007,44.4006348 27.5833097,44.0206947 28.2333374,43.2608032 C28.8833651,42.5009117 29.2144775,41.4099192 29.2266846,39.987793 L29.2266846,39.2462158 C29.2266846,37.7996754 28.9123567,36.6949501 28.2836914,35.9320068 C27.6550262,35.1690636 26.7425597,34.7875977 25.5462646,34.7875977 L23.9257812,34.7875977 Z M41.7163086,40.6011963 L36.3513184,40.6011963 L36.3513184,46.25 L34.0350342,46.25 L34.0350342,32.9199219 L42.5036621,32.9199219 L42.5036621,34.7875977 L36.3513184,34.7875977 L36.3513184,38.7518311 L41.7163086,38.7518311 L41.7163086,40.6011963 Z" id="PDF" fill="#FFFFFF" fill-rule="nonzero"></path>
                </g>
            </g>
        </g>
    </g>
</svg>