<?xml version="1.0" encoding="UTF-8"?>
<svg width="62px" height="66px" viewBox="0 0 62 66" version="1.1" xmlns="http://www.w3.org/2000/svg" xmlns:xlink="http://www.w3.org/1999/xlink">
    <!-- Generator: Sketch 53.2 (72643) - https://sketchapp.com -->
    <title>Images / 1:1 / Corners Copy 2</title>
    <desc>Created with Sketch.</desc>
    <g id="Tracking" stroke="none" stroke-width="1" fill="none" fill-rule="evenodd">
        <g id="Dialog_Export" transform="translate(-381.000000, -80.000000)">
            <g id="IC-/-Excel" transform="translate(376.000000, 73.000000)">
                <g id="Group-2" transform="translate(5.000000, 8.750000)">
                    <g id="Group" transform="translate(10.000000, 0.000000)" fill="#472F92" fill-rule="nonzero">
                        <path d="M1.25,61.25 L48.75,61.25 L48.75,14.3824692 L35.2232009,14.3824692 L35.2232009,1.25 L1.25,1.25 L1.25,61.25 Z M37.7232009,11.8824692 L51.25,11.8824692 L51.25,63.75 L-1.25,63.75 L-1.25,-1.25 L37.7232009,-1.25 L37.7232009,11.8824692 Z" id="Stroke-1-Copy"></path>
                        <path d="M36.6161165,0.883883476 C36.1279612,0.395728112 36.1279612,-0.395728112 36.6161165,-0.883883476 C37.1042719,-1.37203884 37.8957281,-1.37203884 38.3838835,-0.883883476 L50.7582521,11.4904852 C51.2464075,11.9786406 51.2464075,12.7700968 50.7582521,13.2582521 C50.2700968,13.7464075 49.4786406,13.7464075 48.9904852,13.2582521 L36.6161165,0.883883476 Z" id="Line"></path>
                    </g>
                    <rect id="Rectangle" fill="#00990B" x="0" y="27.5" width="50" height="25"></rect>
                    <path d="M14.6405029,37.7355957 L17.4420166,32.9199219 L20.1153564,32.9199219 L16.0870361,39.5300293 L20.2069092,46.25 L17.5061035,46.25 L14.6405029,41.361084 L11.7657471,46.25 L9.07409668,46.25 L13.203125,39.5300293 L9.16564941,32.9199219 L11.8389893,32.9199219 L14.6405029,37.7355957 Z M24.4110107,44.4006348 L30.4626465,44.4006348 L30.4626465,46.25 L22.0947266,46.25 L22.0947266,32.9199219 L24.4110107,32.9199219 L24.4110107,44.4006348 Z M39.3817139,42.8167725 C39.3817139,42.230832 39.1757223,41.7791764 38.7637329,41.461792 C38.3517435,41.1444076 37.6086479,40.8239762 36.5344238,40.5004883 C35.4601997,40.1770003 34.6057161,39.8168965 33.9709473,39.420166 C32.7563416,38.6572227 32.1490479,37.6623596 32.1490479,36.4355469 C32.1490479,35.3613228 32.5869707,34.4763218 33.4628296,33.7805176 C34.3386885,33.0847133 35.4754569,32.7368164 36.8731689,32.7368164 C37.800908,32.7368164 38.6279261,32.9077131 39.354248,33.2495117 C40.08057,33.5913103 40.651243,34.0780608 41.0662842,34.7097778 C41.4813253,35.3414949 41.6888428,36.0418663 41.6888428,36.8109131 L39.3817139,36.8109131 C39.3817139,36.1151088 39.1635154,35.5703755 38.7271118,35.1766968 C38.2907083,34.7830181 37.66663,34.5861816 36.8548584,34.5861816 C36.0980187,34.5861816 35.5105612,34.7479232 35.0924683,35.0714111 C34.6743754,35.3948991 34.465332,35.8465547 34.465332,36.4263916 C34.465332,36.9146753 34.6911599,37.3220809 35.1428223,37.6486206 C35.5944847,37.9751603 36.3391061,38.29254 37.376709,38.600769 C38.4143118,38.9089981 39.2474334,39.2599468 39.8760986,39.6536255 C40.5047639,40.0473042 40.9655747,40.4989599 41.2585449,41.008606 C41.5515151,41.5182521 41.697998,42.1148647 41.697998,42.7984619 C41.697998,43.9093073 41.2722821,44.7927824 40.4208374,45.4489136 C39.5693927,46.1050448 38.4143139,46.4331055 36.9555664,46.4331055 C35.9912061,46.4331055 35.1046793,46.2545794 34.2959595,45.897522 C33.4872396,45.5404645 32.8585838,45.0476106 32.4099731,44.4189453 C31.9613625,43.7902801 31.7370605,43.0578655 31.7370605,42.2216797 L34.0533447,42.2216797 C34.0533447,42.9785194 34.3035864,43.564451 34.8040771,43.9794922 C35.3045679,44.3945333 36.0217238,44.6020508 36.9555664,44.6020508 C37.7612345,44.6020508 38.3670024,44.4387834 38.7728882,44.1122437 C39.178774,43.7857039 39.3817139,43.3538845 39.3817139,42.8167725 Z" id="XLS" fill="#FFFFFF" fill-rule="nonzero"></path>
                </g>
            </g>
        </g>
    </g>
</svg>