<?xml version="1.0" encoding="UTF-8"?>
<svg width="40px" height="29px" viewBox="0 0 40 29" version="1.1" xmlns="http://www.w3.org/2000/svg" xmlns:xlink="http://www.w3.org/1999/xlink">
    <!-- Generator: Sketch 53.2 (72643) - https://sketchapp.com -->
    <title>icon/custom/ Am Express</title>
    <desc>Created with Sketch.</desc>
    <defs>
        <polygon id="path-1" points="1.23839009e-05 0.109349845 39.9403096 0.109349845 39.9403096 28.2352941 1.23839009e-05 28.2352941"></polygon>
        <polygon id="path-3" points="0.0706625387 0.0697832817 32.138452 0.0697832817 32.138452 4.7720743 0.0706625387 4.7720743"></polygon>
    </defs>
    <g id="Login" stroke="none" stroke-width="1" fill="none" fill-rule="evenodd">
        <g id="Instant-Quote_proceed_payment" transform="translate(-852.000000, -233.000000)">
            <g id="Group-2" transform="translate(128.000000, 120.000000)">
                <g id="Group-7" transform="translate(724.000000, 60.000000)">
                    <g id="icon/custom/-Am-Express" transform="translate(0.000000, 48.000000)">
                        <g id="Group-11" transform="translate(0.000000, 5.000000)">
                            <g id="Group-3" transform="translate(0.000000, 0.014489)">
                                <mask id="mask-2" fill="white">
                                    <use xlink:href="#path-1"></use>
                                </mask>
                                <g id="Clip-2"></g>
                                <path d="M36.239517,28.2352941 L3.70081734,28.2352941 C1.65685449,28.2352941 1.23839009e-05,26.5783282 1.23839009e-05,24.5344892 L1.23839009e-05,3.8101548 C1.23839009e-05,1.76619195 1.65685449,0.109349845 3.70081734,0.109349845 L36.239517,0.109349845 C38.2834799,0.109349845 39.940322,1.76619195 39.940322,3.8101548 L39.940322,24.5344892 C39.940322,26.5783282 38.2834799,28.2352941 36.239517,28.2352941" id="Fill-1" fill="#006FCF" mask="url(#mask-2)"></path>
                            </g>
                            <path d="M39.9129536,22.7054489 L39.9129536,16.1630341 L39.5636037,16.1630341 L15.1534489,16.1630341 L14.5219938,17.0565325 L13.8977214,16.1630341 L6.77747368,16.1630341 L6.77747368,23.1349226 L13.8704768,23.1349226 L14.4886811,22.2281734 L15.1268235,23.1349226 L19.5666997,23.1349226 L19.5666997,21.6306502 L19.5198885,21.6306502 C20.0719628,21.6306502 20.5736347,21.5309598 21.0180929,21.3658824 L21.0180929,23.1349226 L24.1144396,23.1349226 L24.1144396,22.1210526 L24.8936347,23.1349226 L38.3276904,23.1349226 C38.7143158,23.1349226 39.0767926,23.0692879 39.4017461,22.9513932 C39.5846563,22.8850155 39.7558019,22.802291 39.9129536,22.7054489 L39.9129536,22.7054489 Z M35.0231703,13.7639009 L38.0189598,13.7639009 L38.0189598,6.79126935 L34.8214365,6.79126935 L34.8214365,7.90631579 L34.1097337,6.79126935 L31.3221176,6.79126935 L31.3221176,8.20117647 L30.6974737,6.79126935 L26.0891765,6.79126935 C25.8678762,6.79126935 25.6516533,6.8076161 25.4423653,6.84018576 C25.2642848,6.86817337 25.0909102,6.90804954 24.9237276,6.96018576 C24.7923344,7.00117647 24.6646563,7.0498452 24.5416842,7.10606811 C24.3972879,7.17244582 24.2592074,7.24897833 24.1281858,7.33640867 L24.1281858,7.09665635 L24.1281858,6.79126935 L9.08855728,6.79126935 L8.67889783,8.00712074 L8.26217957,6.79126935 L4.76273684,6.79126935 L4.76273684,8.21616099 L4.13128173,6.79126935 L1.27654489,6.79126935 L1.23839009e-05,9.77368421 L1.23839009e-05,13.1432198 L1.23839009e-05,13.7639009 L2.02193189,13.7639009 L2.39803096,12.7630341 L3.11010526,12.7630341 L3.49313932,13.7639009 L19.0501672,13.7639009 L19.0501672,12.7496594 L19.8292384,13.7639009 L24.1281858,13.7639009 L24.1281858,13.540743 L24.1281858,13.2567802 C24.2392693,13.3286068 24.3544396,13.3913932 24.4717152,13.44613 C24.5892384,13.5004954 24.7092384,13.546935 24.8308483,13.5860681 C24.9809412,13.6351084 25.1336347,13.6721362 25.285709,13.6996285 C25.5338824,13.7447059 25.7808173,13.7639009 26.0154923,13.7639009 L28.5881238,13.7639009 L28.9642229,12.7630341 L29.6762972,12.7630341 L30.0590836,13.7639009 L34.3716533,13.7639009 L34.3716533,12.7293498 L35.0231703,13.7639009 Z" id="Fill-4" fill="#F7F7F7"></path>
                            <g id="Group-8" transform="translate(7.801858, 17.228111)">
                                <mask id="mask-4" fill="white">
                                    <use xlink:href="#path-3"></use>
                                </mask>
                                <g id="Clip-7"></g>
                                <path d="M3.83227245,1.02383901 L3.83227245,0.0697832817 L0.0706625387,0.0697832817 L0.0706625387,4.7720743 L3.83227245,4.7720743 L3.83227245,3.82458204 L1.19945511,3.82458204 L1.19945511,2.87783282 L3.77208669,2.87783282 L3.77208669,1.93727554 L1.19945511,1.93727554 L1.19945511,1.02383901 L3.83227245,1.02383901 Z M7.74843344,4.7720743 L9.15920743,4.7720743 L7.27140557,2.40080495 L9.14570898,0.0697832817 L7.77567802,0.0697832817 L6.62001238,1.56105263 L5.47140557,0.0697832817 L4.06087926,0.0697832817 L5.94162229,2.42074303 L4.06731889,4.7720743 L5.4378452,4.7720743 L6.59313932,3.26049536 L7.74843344,4.7720743 Z M9.40762848,0.0697832817 L9.40762848,4.7720743 L10.5361734,4.7720743 L10.5361734,3.21987616 L11.953387,3.21987616 C12.9813746,3.21987616 13.6190217,2.54854489 13.6190217,1.64154799 C13.6190217,0.708173375 12.9947492,0.0697832817 11.9935108,0.0697832817 L9.40762848,0.0697832817 Z M12.4840372,1.64811146 C12.4840372,1.96439628 12.2826749,2.22594427 11.8862663,2.22594427 L10.5361734,2.22594427 L10.5361734,1.07102167 L11.8862663,1.07102167 C12.2826749,1.07102167 12.4840372,1.32588235 12.4840372,1.64811146 L12.4840372,1.64811146 Z M15.3590836,3.07919505 L15.8898576,3.07919505 L17.2935728,4.7720743 L18.6974118,4.7720743 L17.132582,3.03882353 C17.9319628,2.89083591 18.408743,2.31337461 18.408743,1.56105263 C18.408743,0.680928793 17.7840991,0.0697832817 16.7832322,0.0697832817 L14.2306625,0.0697832817 L14.2306625,4.7720743 L15.3590836,4.7720743 L15.3590836,3.07919505 Z M16.6824272,1.03040248 C17.0855232,1.03040248 17.3005077,1.29232198 17.3005077,1.61504644 C17.3005077,1.93727554 17.0855232,2.19226006 16.6824272,2.19226006 L15.3590836,2.19226006 L15.3590836,1.03040248 L16.6824272,1.03040248 Z M22.983356,1.02383901 L22.983356,0.0697832817 L19.2216223,0.0697832817 L19.2216223,4.7720743 L22.983356,4.7720743 L22.983356,3.82458204 L20.3501672,3.82458204 L20.3501672,2.87783282 L22.9226749,2.87783282 L22.9226749,1.93727554 L20.3501672,1.93727554 L20.3501672,1.02383901 L22.983356,1.02383901 Z M26.0795789,3.83151703 L23.6685573,3.83151703 L23.6685573,4.7720743 L26.0458947,4.7720743 C27.0603839,4.7720743 27.6650898,4.15386997 27.6650898,3.27386997 C27.6650898,2.43424149 27.121065,1.94421053 26.2073808,1.94421053 L25.1190836,1.94421053 C24.8503529,1.94421053 24.6623653,1.76934985 24.6623653,1.49393189 C24.6623653,1.21182663 24.8503529,1.02383901 25.1190836,1.02383901 L27.1609412,1.02383901 L27.5777833,0.0697832817 L25.1523963,0.0697832817 C24.1382786,0.0697832817 23.5335728,0.687863777 23.5335728,1.53417957 C23.5335728,2.40080495 24.1048421,2.8977709 24.9983406,2.8977709 L26.0795789,2.8977709 C26.3479381,2.8977709 26.5428607,3.07226006 26.5428607,3.35473684 C26.5428607,3.64315789 26.3479381,3.83151703 26.0795789,3.83151703 L26.0795789,3.83151703 Z M30.5532632,3.83151703 L28.14187,3.83151703 L28.14187,4.7720743 L30.5192074,4.7720743 C31.534192,4.7720743 32.1385263,4.15386997 32.1385263,3.27386997 C32.1385263,2.43424149 31.5943777,1.94421053 30.681065,1.94421053 L29.5927678,1.94421053 C29.3236656,1.94421053 29.1360495,1.76934985 29.1360495,1.49393189 C29.1360495,1.21182663 29.3236656,1.02383901 29.5927678,1.02383901 L31.6342539,1.02383901 L32.0514675,0.0697832817 L29.6260805,0.0697832817 C28.6115913,0.0697832817 28.007257,0.687863777 28.007257,1.53417957 C28.007257,2.40080495 28.5785263,2.8977709 29.4720248,2.8977709 L30.5532632,2.8977709 C30.8217461,2.8977709 31.0165449,3.07226006 31.0165449,3.35473684 C31.0165449,3.64315789 30.8217461,3.83151703 30.5532632,3.83151703 L30.5532632,3.83151703 Z" id="Fill-6" fill="#006FCF" mask="url(#mask-4)"></path>
                            </g>
                            <path d="M4.25881115,12.6285944 L5.52840867,12.6285944 L3.51986378,7.92642724 L2.03552941,7.92642724 L0.0200495356,12.6285944 L1.22252632,12.6285944 L1.61918266,11.6209164 L3.85571517,11.6209164 L4.25881115,12.6285944 Z M2.39144272,9.67986378 L2.73410526,8.79986378 L3.07664396,9.67986378 L3.49299071,10.7209783 L1.98178328,10.7209783 L2.39144272,9.67986378 Z M6.88543653,9.41794427 L6.85819195,8.14834675 L8.16159752,12.6285944 L9.18265015,12.6285944 L10.4855604,8.17521981 L10.4586873,9.41113313 L10.4586873,12.6285944 L11.553548,12.6285944 L11.553548,7.92642724 L9.56543653,7.92642724 L8.67193808,11.258192 L7.77187616,7.92642724 L5.79020433,7.92642724 L5.79020433,12.6285944 L6.88543653,12.6285944 L6.88543653,9.41794427 Z M16.2423406,8.88035913 L16.2423406,7.92642724 L12.4807307,7.92642724 L12.4807307,12.6285944 L16.2423406,12.6285944 L16.2423406,11.6680991 L13.6091517,11.6680991 L13.6091517,10.7343529 L16.1816594,10.7343529 L16.1816594,9.79416718 L13.6091517,9.79416718 L13.6091517,8.88035913 L16.2423406,8.88035913 Z M18.1967678,10.9360867 L18.7275418,10.9360867 L20.1316285,12.6285944 L21.5354675,12.6285944 L19.9702663,10.8954675 C20.7696471,10.7477276 21.2467988,10.1698947 21.2467988,9.41794427 C21.2467988,8.53794427 20.6217833,7.92642724 19.6209164,7.92642724 L17.0683467,7.92642724 L17.0683467,12.6285944 L18.1967678,12.6285944 L18.1967678,10.9360867 Z M19.5199876,8.88729412 C19.9230836,8.88729412 20.138192,9.14921362 20.138192,9.4716904 C20.138192,9.79416718 19.9230836,10.0491517 19.5199876,10.0491517 L18.1967678,10.0491517 L18.1967678,8.88729412 L19.5199876,8.88729412 Z M21.8913808,12.6285944 L23.0198019,12.6285944 L23.0198019,10.5592446 L23.0198019,7.92642724 L21.8913808,7.92642724 L21.8913808,10.5323715 L21.8913808,12.6285944 Z M25.9015356,12.6285944 L25.961969,12.6285944 L26.4252508,11.6278514 L26.0828359,11.6278514 C25.3100805,11.6278514 24.8534861,11.1442601 24.8534861,10.3114427 L24.8534861,10.244322 C24.8534861,9.49856347 25.2628978,8.94104025 26.0693375,8.94104025 L27.2917523,8.94104025 L27.2917523,7.92642724 L25.9753437,7.92642724 C24.5245697,7.92642724 23.7318762,8.90066873 23.7318762,10.237387 L23.7318762,10.3180062 C23.7318762,11.7152817 24.5448793,12.622031 25.9015356,12.6285944 L25.9015356,12.6285944 Z M30.8248793,12.6285944 L32.0942291,12.6285944 L30.0864272,7.92642724 L28.601226,7.92642724 L26.586613,12.6285944 L27.7888421,12.6285944 L28.1852508,11.6209164 L30.422031,11.6209164 L30.8248793,12.6285944 Z M28.9578824,9.67986378 L29.3002972,8.79986378 L29.6424644,9.67986378 L30.0595542,10.7209783 L28.5479752,10.7209783 L28.9578824,9.67986378 Z M33.4580681,9.81410526 L33.4446935,9.42450774 L33.6797399,9.81410526 L35.4796161,12.6285944 L36.7967678,12.6285944 L36.7967678,7.92642724 L35.695096,7.92642724 L35.695096,10.6470464 L35.7084706,10.9962724 L35.5002972,10.6470464 L33.7399257,7.92642724 L32.3568916,7.92642724 L32.3568916,12.6285944 L33.4580681,12.6285944 L33.4580681,9.81410526 Z" id="Fill-9" fill="#006FCF"></path>
                        </g>
                    </g>
                </g>
            </g>
        </g>
    </g>
</svg>