<?xml version="1.0" encoding="UTF-8"?>
<svg width="35px" height="22px" viewBox="0 0 35 22" version="1.1" xmlns="http://www.w3.org/2000/svg" xmlns:xlink="http://www.w3.org/1999/xlink">
    <!-- Generator: Sketch 53.2 (72643) - https://sketchapp.com -->
    <title>icon/custom/ Am Express Copy</title>
    <desc>Created with Sketch.</desc>
    <g id="Login" stroke="none" stroke-width="1" fill="none" fill-rule="evenodd">
        <g id="Instant-Quote_proceed_payment" transform="translate(-902.000000, -236.000000)">
            <g id="Group-2" transform="translate(128.000000, 120.000000)">
                <g id="Group-7" transform="translate(724.000000, 60.000000)">
                    <g id="icon/custom/-master" transform="translate(48.000000, 48.000000)">
                        <g id="Group" transform="translate(1.666667, 6.666667)">
                            <polygon id="Fill-4" fill="#F16522" points="13.6782559 20.9217957 22.9048039 20.9217957 22.9048039 4.34193498 13.6782559 4.34193498"></polygon>
                            <path d="M14.2645593,12.6318483 C14.2645593,9.26833437 15.8396367,6.27279257 18.2918194,4.34183282 C16.497934,2.92971207 14.2352714,2.08734365 11.7754262,2.08734365 C5.95223736,2.08734365 1.23160268,6.80848916 1.23160268,12.6318483 C1.23160268,18.4552074 5.95223736,23.1763529 11.7754262,23.1763529 C14.2352714,23.1763529 16.497934,22.3339845 18.2918194,20.9218638 C15.8396367,18.990904 14.2645593,15.9953622 14.2645593,12.6318483" id="Fill-6" fill="#E41B24"></path>
                            <path d="M35.0230748,19.1652864 L35.0230748,18.7564474 L34.9161398,18.7564474 L34.7933689,19.037918 L34.6707683,18.7564474 L34.5638333,18.7564474 L34.5638333,19.1652864 L34.6385857,19.1652864 L34.6385857,18.8567415 L34.7538643,19.1230573 L34.8321925,19.1230573 L34.9474711,18.8560604 L34.9474711,19.1652864 L35.0230748,19.1652864 Z M34.3462172,19.1652864 L34.3462172,18.8259211 L34.4832915,18.8259211 L34.4832915,18.7571285 L34.1342203,18.7571285 L34.1342203,18.8259211 L34.2712946,18.8259211 L34.2712946,19.1652864 L34.3462172,19.1652864 Z M35.3523937,12.6311842 C35.3523937,18.4552245 30.631759,23.1756889 24.8083999,23.1756889 C22.3485547,23.1756889 20.0857219,22.3331502 18.2925175,20.9211997 C20.7448705,18.9909211 22.319437,15.9946981 22.319437,12.6311842 C22.319437,9.26767028 20.7448705,6.27212848 18.2925175,4.34116873 C20.0857219,2.9297291 22.3485547,2.08736068 24.8083999,2.08736068 C30.631759,2.08736068 35.3523937,6.80782508 35.3523937,12.6311842 L35.3523937,12.6311842 Z" id="Fill-7" fill="#F89E1C"></path>
                        </g>
                    </g>
                </g>
            </g>
        </g>
    </g>
</svg>