<?xml version="1.0" encoding="UTF-8"?>
<svg width="36px" height="13px" viewBox="0 0 36 13" version="1.1" xmlns="http://www.w3.org/2000/svg" xmlns:xlink="http://www.w3.org/1999/xlink">
    <!-- Generator: Sketch 53.2 (72643) - https://sketchapp.com -->
    <title>icon/custom/ Am Express Copy 2</title>
    <desc>Created with Sketch.</desc>
    <g id="Login" stroke="none" stroke-width="1" fill="none" fill-rule="evenodd">
        <g id="Instant-Quote_proceed_payment" transform="translate(-950.000000, -241.000000)">
            <g id="Group-2" transform="translate(128.000000, 120.000000)">
                <g id="Group-7" transform="translate(724.000000, 60.000000)">
                    <g id="icon/custom/-visa" transform="translate(96.000000, 48.000000)">
                        <g id="Group-14" transform="translate(1.666667, 13.333333)">
                            <polygon id="Fill-4" fill="#253B80" points="15.9608411 11.815209 13.1006708 11.815209 14.8884262 0.828490712 17.7487668 0.828490712"></polygon>
                            <path d="M10.6941739,0.828405573 L7.96699123,8.38503096 L7.64448349,6.75767802 L7.64482405,6.75835913 L6.68223891,1.81789474 C6.68223891,1.81789474 6.5659386,0.828405573 5.32528844,0.828405573 L0.817331785,0.828405573 L0.764545408,1.01434985 C0.764545408,1.01434985 2.14363209,1.30109907 3.75651135,2.27049536 L6.24172807,11.8151238 L9.22194479,11.8151238 L13.7728117,0.828405573 L10.6941739,0.828405573 Z" id="Fill-6" fill="#253B80"></path>
                            <path d="M30.0453364,7.92873529 L31.548386,3.81718731 L32.3938194,7.92873529 L30.0453364,7.92873529 Z M33.1927668,11.8151749 L35.8191445,11.8151749 L33.5292374,0.828456656 L31.2296244,0.828456656 C30.1675965,0.828456656 29.9091135,1.64715635 29.9091135,1.64715635 L25.6432931,11.8151749 L28.6247018,11.8151749 L29.2211878,10.1833947 L32.8573179,10.1833947 L33.1927668,11.8151749 Z" id="Fill-8" fill="#253B80"></path>
                            <path d="M25.866937,3.47046594 L26.2750949,1.11074458 C26.2750949,1.11074458 25.0153736,0.631750774 23.702355,0.631750774 C22.2829123,0.631750774 18.9120764,1.25258669 18.9120764,4.26890248 C18.9120764,7.10761765 22.8683302,7.1430356 22.8683302,8.63331424 C22.8683302,10.1237632 19.3198937,9.85727709 18.1488875,8.91716873 L17.7233612,11.3836548 C17.7233612,11.3836548 19.000451,12.0044907 20.952355,12.0044907 C22.9039185,12.0044907 25.8492281,10.9932059 25.8492281,8.2430356 C25.8492281,5.38644118 21.8572157,5.12046594 21.8572157,3.87862384 C21.8572157,2.63644118 24.6429742,2.79616254 25.866937,3.47046594" id="Fill-10" fill="#253B80"></path>
                            <path d="M7.64478999,6.75839319 L6.68220485,1.81792879 C6.68220485,1.81792879 6.56607482,0.828439628 5.32525439,0.828439628 L0.81729773,0.828439628 L0.764511352,1.0143839 C0.764511352,1.0143839 2.93130702,1.46357895 5.01006863,3.14593189 C6.99670949,4.75404334 7.64478999,6.75839319 7.64478999,6.75839319" id="Fill-12" fill="#F9A533"></path>
                        </g>
                    </g>
                </g>
            </g>
        </g>
    </g>
</svg>